<svg enable-background="new 0 0 500 500" viewBox="0 0 500 500" xmlns="http://www.w3.org/2000/svg" xmlns:xlink="http://www.w3.org/1999/xlink"><clipPath id="a"><circle cx="250" cy="250" r="250"/></clipPath><g fill="none" stroke="#377dff" stroke-linecap="round" stroke-miterlimit="10" stroke-width="4"><path clip-path="url(#a)" d="m11.3 9.1 475.3 474.9"/><path clip-path="url(#a)" d="m-6.5 34.8 475.3 474.8"/><path clip-path="url(#a)" d="m498.2 319.4-316.7-316.7"/><path clip-path="url(#a)" d="m526.8 299.6-316.7-316.7"/><path clip-path="url(#a)" d="m355.6 1 139.1 138.7"/><path clip-path="url(#a)" d="m275.9 3.1 216.7 216.3"/><path clip-path="url(#a)" d="m294.6-17.6 216.7 216.3"/><path clip-path="url(#a)" d="m7.4 181.1 305.9 305.9"/><path clip-path="url(#a)" d="m-6.4 216.6 305.9 305.9"/><path clip-path="url(#a)" d="m3.1 86.3 413.7 413.6"/><path clip-path="url(#a)" d="m-12.7 116.8 413.7 413.7"/><path clip-path="url(#a)" d="m93.6.1 405 405"/><path clip-path="url(#a)" d="m115.3-20.6 405 405"/><path clip-path="url(#a)" d="m81.8 33.6 405 405.1"/><path clip-path="url(#a)" d="m1.4 350.8 143 143.5"/><path clip-path="url(#a)" d="m3.5 275.4 216.3 216.8"/><path clip-path="url(#a)" d="m-11.3 300.1 216.3 216.7"/></g></svg>