<svg enable-background="new 0 0 1609.2 892.4" viewBox="0 0 1609.2 892.4" xmlns="http://www.w3.org/2000/svg" xmlns:xlink="http://www.w3.org/1999/xlink"><linearGradient id="a" gradientTransform="matrix(144 0 0 -88 -117333.9609 -9783.6035)" gradientUnits="userSpaceOnUse" x1="815.2257" x2="814.8363" y1="-110.4366" y2="-110.1666"><stop offset="0" stop-color="#cee0fb"/><stop offset="1" stop-color="#e4edfb"/></linearGradient><linearGradient id="b" gradientTransform="matrix(131 0 0 -31 -104247.8672 -2417.8486)" gradientUnits="userSpaceOnUse" x1="795.8188" x2="795.8188" y1="-74.7748" y2="-75.3149"><stop offset="0" stop-color="#99bae9"/><stop offset="1" stop-color="#bcd0f2"/></linearGradient><linearGradient id="c"><stop offset="0" stop-color="#b1ffbe"/><stop offset=".444" stop-color="#5cdb8e"/><stop offset="1" stop-color="#149654"/></linearGradient><linearGradient id="d" gradientTransform="matrix(76.9467 0 0 -183 -61080.8672 13641.8037)" gradientUnits="userSpaceOnUse" x1="793.6149" x2="793.8548" xlink:href="#c" y1="74.6183" y2="74.1052"/><clipPath id="e"><path d="m3.5 82.3c-2-13.4-7.3-32.7-23.3-53.5-9.4-12.3-9.5-42.1-10.8-45.4 7.4 2.6 20.7 9.1 34.1 27.6 14 19.3 5.1 58.7 0 71.3z"/></clipPath><linearGradient id="f" gradientTransform="matrix(109.591 0 0 -118.6618 -103077.7266 -1341.0343)" gradientUnits="userSpaceOnUse" x1="940.7231" x2="940.7867" xlink:href="#c" y1="-10.7927" y2="-11.3225"/><clipPath id="g"><path d="m50.5 7c-6-9.6-16.5-22.5-35.7-33-11.3-6.2-21.3-28.9-23.5-31 6.5-.5 18.8 0 35.2 9.6 17.3 10.1 23.7 43.2 24 54.4z"/></clipPath><linearGradient id="h" gradientTransform="matrix(94.2947 0 0 -132.014 -55948.9023 -159.3072)" gradientUnits="userSpaceOnUse" x1="592.8624" x2="593.1022" xlink:href="#c" y1="-.85" y2="-1.3631"/><clipPath id="i"><path d="m-60.2 19.3c4.7-10.3 13.6-24.5 31.3-37.4 10.4-7.7 17.5-31.6 19.4-33.9-6.5.3-18.7 2.4-33.9 14.1-15.8 12.2-18 46-16.8 57.2z"/></clipPath><linearGradient id="j"><stop offset="0" stop-color="#f5f8ff"/><stop offset="1" stop-color="#fff"/></linearGradient><linearGradient id="k" gradientTransform="matrix(1 0 0 -1 0 892)" gradientUnits="userSpaceOnUse" x1="448.9726" x2="506.3345" xlink:href="#j" y1="367.9115" y2="367.9115"/><linearGradient id="l"><stop offset="0" stop-color="#b1c2e4" stop-opacity=".6"/><stop offset="1" stop-color="#fff" stop-opacity="0"/></linearGradient><linearGradient id="m" gradientTransform="matrix(1 0 0 -1 0 892)" gradientUnits="userSpaceOnUse" x1="448.9726" x2="506.3345" xlink:href="#l" y1="367.9115" y2="367.9115"/><linearGradient id="n" gradientTransform="matrix(1 0 0 -1 0 892)" gradientUnits="userSpaceOnUse" x1="326.2776" x2="381.6337" xlink:href="#j" y1="367.3717" y2="367.3717"/><linearGradient id="o" gradientTransform="matrix(1 0 0 -1 0 892)" gradientUnits="userSpaceOnUse" x1="326.2776" x2="381.6337" xlink:href="#l" y1="367.3717" y2="367.3717"/><linearGradient id="p" gradientTransform="matrix(1 0 0 -1 0 892)" gradientUnits="userSpaceOnUse" x1="394.8849" x2="426.3878" y1="235.0177" y2="413.6798"><stop offset="0" stop-color="#fff" stop-opacity="0"/><stop offset="1" stop-color="#b1c2e4" stop-opacity=".3"/></linearGradient><path d="m811 792.1c281.1 0 508.5 22.3 508.5 50.2s-227.4 50.2-508.5 50.2-508.5-22.3-508.5-50.2 228.1-50.2 508.5-50.2z" fill="#bbcff2" opacity=".1"/><g opacity=".5" transform="translate(100.086 99.66)"><path d="m-8.9-61.4c-1.6 1.6-1 7.2-1 9.2-.1 3.2.1 6.4.4 9.6.2 2.1 1.2 22.6 4 21 1.6-.9.6-6.8.6-8.7 0-4.2-.2-8.3-.5-12.5-.2-3.7-.3-7.6-.2-11.4 0-1 .9-11.5-3.3-7.2" fill="#bdc5d1"/><path d="m59.6-63.9c-13.5.1-27 .8-40.5 1.2-6.5.2-13 .4-19.5.8-2.2.1-7-.6-8.8.5-4.1 2.6 2.5 3.2 4.3 3.2 26.7-1 53.5-2.2 80.2-2.3 13.1 0 26.2.3 39.4.3 5 0 10.6-2.2 11.8 3.6 1.4 6.6-.2 13.9-.7 20.5-.2 4.4-.2 8.8 0 13.2.1 2.8-.2 6 .3 8.8.5 2.7 2.4 4.3 4.2 1.3 1.1-1.8.5-6.2.6-8.3.1-2.8 0-5.6 0-8.4 0-6.8 1-13.6.8-20.4-.1-4.4-.3-12.4-5.9-13.4-6.1-1.2-13.6 0-19.9-.1-15.4-.2-30.8-.7-46.3-.5" fill="#bdc5d1"/><path d="m22.4-21.3c-5.1 0-10.2 0-15.3.1-4.4.1-11.3-.8-15.3.7-2.8 1.1-3.5 4.2 0 5 3.8.9 9.6-.5 13.6-.6 20.2-.4 40.5-.8 60.7.5 18.9 1.2 38.1 2.4 57 1.1 1.6-.1 9.7-.4 6-3.5-2.2-1.8-10.9-.6-13.7-.7-9.9-.3-19.8-.4-29.7-.7-9.8-.4-19.5-1.5-29.2-1.7-11.4-.4-22.8-.2-34.1-.2" fill="#bdc5d1"/><path d="m18.2-27.2c-6.9 0-14.4-3.3-15.7-10.7-.1-.4-.1-.9 0-1.3 0-.5 0-.9-.1-1.4-.1-.3-.2-.6-.4-.8-.3-.3-.4-.7-.5-1.1 0-2 1.2-3.1 2.5-4.4l1.5-1.5c2.7-3.1 4.4-4.7 8-6.1 1.1-.4 2.3-.6 3.4-.6 3.7.2 7.2 1.5 10 3.9 3.1 2.4 5.3 5.5 6 8.4.7 3.1.1 6.4-1.7 9.1-2 3.1-5.1 5.2-8.7 6-1.4.4-2.9.5-4.3.5zm-10.8-15.9c-1 2.5-.8 5.3.8 7.5 2 2.9 6 4.7 10.1 4.7 2.4 0 4.7-.6 6.7-2 2.8-1.8 4.1-5.3 3-8.5-1.4-4.7-6.2-8.7-10.8-8.9-.3.3-.6.4-1 .5-.1 0-.3 0-.4-.1-.1-.1-.3-.1-.4-.1s-.2 0-.3 0c-1.2.5-2.4 1.2-3.4 2l-.2.2-.3.2c-1.1.7-2 1.6-2.9 2.5 0 0-.1.2-.2.5-.3.6-.7 1.5-.7 1.5z" fill="#bdc5d1"/><path d="m10.1-42c0 3.2 5.1 3.2 5.1 0 0-3.1-5.1-3.3-5.1 0" fill="#bdc5d1"/><path d="m16.5-42.6c0 2.6 4 2.6 4 0 0-2.5-4-2.6-4 0" fill="#bdc5d1"/><path d="m17.7-37.3c-1.3.5-2.9-.5-4 .1-1.9 1.2 0 2.3 1 2.8 4.6 2.2 5.4-3.8 3-2.9" fill="#bdc5d1"/><path d="m42.2-38.2c-.2 0-.4 0-.6-.1-1.1-.3-1.6-.9-1.4-1.8.2-1.2 1.6-3 3.7-4.7 2.1-1.6 4.2-2.6 5.6-2.6h.3c1.3.3 2.6.9 3.7 1.7 1.1.9 2.4 1.5 3.8 1.7h.7c1.9-.2 3.8-.8 5.4-1.9 1.2-.7 2.5-1.3 3.9-1.7.6-.1 1.3-.2 2-.2 2.5 0 4.7 1.1 6.7 2.1 2.1 1 4.2 2.1 6.6 2.1 1 0 2-.2 3-.5.3-.1.7-.3 1.1-.5l1.2-.6c1.4-.8 2.9-1.3 4.4-1.6h.4c2.1 0 4 1.2 5.7 2.3.7.4 1.4.9 2.1 1.3.3.2.7.3 1.1.3.8.2 1.6.4 1.8 1.4.1.4 0 .8-.2 1.1-.3.3-.7.4-1.1.4-.3 0-.7 0-1-.1-.1 0-.3 0-.4 0-1.4-.3-2.8-.9-3.9-1.8s-2.4-1.5-3.8-1.7c-.1 0-.3 0-.4 0-1.8.2-3.5.8-5 1.7-1.2.7-2.5 1.2-3.8 1.5-.6.1-1.2.2-1.8.2-2.2-.1-4.4-.7-6.3-1.9l-.7-.3c-2-1.1-3.6-1.9-5.6-1.9-1.1 0-2.1.2-3.1.7-.9.4-1.7.8-2.5 1.2-2.1 1-4 1.9-6.3 1.9-.5 0-1 0-1.5-.1-1.1-.3-2.1-.7-3.1-1.3-1.1-.7-2.4-1.2-3.7-1.4-.1 0-.2 0-.3 0-1.2.1-2.2 1.3-3.1 2.5-1.1 1.3-2.2 2.6-3.6 2.6z" fill="#bdc5d1"/><path d="m73.3-1c-13.9.1-27.8.3-41.7 1.4-3.3.3-36.8 3.4-36.7 3.7.1.4 4.4 1.1 4.4 1.2-.3-.7-1-1-2-.9 31.8 0 63.5-2.8 95.3-2.3 8 .1 16 .1 24 .3 2 .1 6.9 1.5 8.5.6 4.1-2.4-3.4-2.6-4.6-2.7-15.6-1.3-31.5-1.4-47.2-1.3" fill="#97a4af"/><path d="m-9.2 5.8c-2.1 2.1-.2 9.6-.1 12.4.1 4.1 0 8.2.4 12.2.3 4.7 1.1 9.5 2.3 14.1.7 2.5 3 6.4 4 1.9.7-3.2-.3-7.5-.7-10.8-.4-4.4-.6-8.7-.6-13.1 0-3.8-.1-7.7-.4-11.5-.3-2-1.3-8.9-4.9-5.2" fill="#97a4af"/><path d="m43 43.9c-9.9.2-19.7.4-29.6 1-4 .3-8.1.6-12.1 1.1-.8.1-9.9.5-5.8 3.8 1.8 1.5 9.4-.6 11.8-.8 4.2-.4 8.4-.6 12.6-.8 9.7-.4 19.5-.8 29.2-.6 17.8.3 35.4.4 53.2.1 2.5-.1 22.3.5 23-2.2.5-2.1-6.5-1.1-7.8-1.1-4.7.1-9.5.1-14.2.1-20.1-.1-40.3-.9-60.3-.6" fill="#97a4af"/><path d="m121.9 2.2c.3 8.8 1.8 17.5 2.3 26.3.2 4 .5 8 .7 12.1.1 1.3-.5 4.4 1.1 5.2 2.1 1 2.4-1 2.8-2.4 1.1-4 .4-9.3.3-13.4-.1-4-.1-8-.4-12-.3-4.1-1.1-8.1-1.5-12.2-.2-1.7.4-4.6-1.4-5.7-1.2-.7-2.7-.3-3.4.9-.4.4-.5.8-.5 1.2" fill="#97a4af"/><path d="m20.5 39.2h-.1c-2.6 0-7.7-.4-11.8-2.4s-6.2-5.2-6.3-9.3c.1-4.1 1.6-8.1 4.2-11.3 1.3-1.6 2.9-3 4.6-4.1 1.7-1 3.7-1.7 5.7-1.8h.7c1.9 0 3.9.4 5.7 1.1 1.9.7 3.6 1.7 5.2 3 1.6 1.2 3 2.7 4.1 4.4 1.1 1.6 1.9 3.4 2.4 5.2.9 3.4.2 7-2 9.8-1.5 1.8-3.3 3.2-5.4 4-2.2.9-4.5 1.4-7 1.4zm-3.8-25c-3 .1-5.9 1.6-7.8 3.9-2 2.3-3.1 5.3-3.2 8.3-.2 2 .6 4.1 2 5.5 1.6 1.5 3.6 2.5 5.8 3s4.5.8 6.8.7h.5c3.9 0 7.5-1.6 9.4-4.1 1.5-2 1.9-4.5 1.1-6.9-.5-1.6-1.2-3-2.3-4.3-1-1.3-2.2-2.4-3.5-3.4-1.7-1.3-3.8-2-5.9-2.2-1.1 0-2-.2-2.9-.5z" fill="#97a4af"/><path d="m8.7 22.7c0 2.6 4.1 2.6 4.1 0 0-2.5-4.1-2.6-4.1 0" fill="#97a4af"/><path d="m17.3 21.6c0 2.6 4.1 2.6 4.1 0s-4.1-2.7-4.1 0" fill="#97a4af"/><path d="m12.6 27.5c-2.7 2.7 6.7 7.3 8.9 3.6 1.8-3-2.1-2-3.5-2.2-1.6-.2-4.2-2.6-5.4-1.4" fill="#97a4af"/><path d="m42.6 26.5c-.5 0-1.1-.2-1.5-.5-.4-.6-.6-1.3-.6-2 .1-3.2 8.9-6.2 11.7-6.7.5-.1 1-.1 1.4-.1 2.1.1 4.1.8 5.9 1.9 1.8 1.1 3.9 1.7 6 1.9.6 0 1.2-.1 1.8-.2 1.1-.3 2.2-.6 3.2-1.1 1.4-.6 2.9-1.1 4.5-1.3h.7c1.6 0 3.2.6 4.5 1.6.8.5 1.6 1 2.5 1.4.6.2 1.2.4 1.8.4.4 0 .9 0 1.3-.1.5-.1.9-.1 1.4-.1h.4c1.3.1 2.2.5 2.3 1.2.2.8-.6 1.6-1.9 2.3-.9.5-1.8.7-2.8.7-1.6-.1-3.1-.7-4.4-1.6s-2.8-1.5-4.4-1.8c-.2 0-.5 0-.7 0-2 .1-3.9.7-5.7 1.6h-.1c-1.9.9-3.9 1.5-5.9 1.6-.1 0-.2 0-.3 0-1.9-.2-3.7-.7-5.4-1.6-1.5-.8-3.1-1.3-4.8-1.4-.9 0-1.9.2-2.8.6-.3.1-.9.4-1.5.8-1.8.9-4.7 2.5-6.6 2.5z" fill="#97a4af"/><path d="m107.6 28.4c-1.6-.1-3-.8-4.1-1.9-1.2-1.2-2-2.6-2.4-4.2-.7-2.5.6-5.1 3-6.1.4-.2.8-.3 1.3-.2 2.1.2 4.2 1.1 5.8 2.5 1.1 1.1 1.8 2.6 1.7 4.2 0 1.8-.8 3.4-2.1 4.6-.9.7-2 1.1-3.2 1.1zm-1.9-8.5c-.6.8-.7 1.9-.2 2.7.4 1 1.2 1.7 1.9 1.7h.3c.8-.2 1.2-.5 1.3-.9 0-1.2-2.8-3.2-3.3-3.5z" fill="#97a4af"/><g fill="#bdc5d1"><path d="m31.7 65.8c-9.6 0-19.3-.2-28.9.4-1.6.1-7.8-.2-8.6 1.5-1.5 3.1 4.8 1.6 5.7 1.5 19.1-1.9 39.1-.8 58.3-.3 15.7.4 31.3.7 47 1.5 4.1.2 8.2.4 12.4.7 1.3.1 4.7 1 5-1.2.3-2-4-1.5-5-1.6-8.4-.4-16.7-.9-25.1-1.4-20.2-1.1-40.6-1.1-60.8-1.1"/><path d="m-6.2 69.3c-1.8 1.8-1 8.6-1 10.9-.1 3.9-.3 7.8-.4 11.8-.1 4.1 0 8.3.3 12.4.1 1.7 1.5 10.1 3.8 5.3 1-2.1 0-8.1 0-10.5 0-4.4.3-8.8.5-13.2.2-3.8.2-7.6.4-11.3 0-1.3.1-9.2-3.6-5.4"/><path d="m124.2 104.5c-9.4 1-18.9.5-28.3 1.2-8.1.6-16.2.9-24.3 1-18.4.4-36.8.8-55.2 2.3-4.2.3-8.4.7-12.5.9-2.1.1-10.9-.9-11.5 1.3-1.1 3.8 8.3 2.3 10.3 2.2 4.5-.1 8.9-.5 13.4-.8 18.7-1.4 37.5-1.9 56.2-2.4 10.2-.3 20.3-1.1 30.5-1.7 5.1-.3 10.2-.3 15.2-.7 1.3-.1 6 .1 7-1 .5-.7.7-2.4-.8-2.3"/><path d="m121 69.9c.3 9 .8 18 1.1 26.9.1 2.7-.7 7.5.8 9.9 2.4 3.8 4.3-.2 4.7-2.6 1.4-7.5-.1-15.9-.5-23.4-.1-2.9.7-9.3-.6-11.9-1.3-2.5-5.6-2.2-5.5 1.1"/><path d="m105.3 95.3c-.8 0-1.7-.2-2.4-.4-1-.4-2-1-2.7-1.8s-1.3-1.8-1.6-2.8c-.4-1.5-.2-3.1.6-4.4.4-.8.7-1.7.8-2.6 0-.3 0-.6-.1-.9-.2-.7-.2-1.4.1-2.1.3-.4 1.1-.6 2.4-.6h1.3.6c.4-.1.8-.1 1.2-.1 1.7 0 3.4 1 4.2 2.5 1 1.6 1.5 3.5 1.5 5.4.1 2.3-.7 4.6-2.2 6.4-1 .9-2.3 1.4-3.7 1.4zm0-12.6c-2.2 1-4 5-3.4 7.4.2 1.3 1.4 2.1 2.7 2 .3 0 .5 0 .8-.1 1.9-.3 2.7-2.2 2.8-3.9.1-1.2-.1-2.4-.6-3.4-.5-.9-1.3-1.7-2.3-2z"/><path d="m15.1 99.5c-4.7 0-9.1-2.4-11.7-6.4-2.2-3.6-2.3-8.1-.3-11.8-.2.2-.5.3-.8.4-.7 0-1.1-1-1.2-1.6-.2-.9 1.2-2.5 2.2-3.6.2-.2.4-.5.5-.6 2.1-2.5 4.5-4.9 8.2-5h.4c3.2.1 6.2 1.2 8.6 3.3 2.5 2.1 4.4 4.7 5.6 7.8 1 2.4 1.3 5 .9 7.6s-1.7 5-3.8 6.7c-2.4 2.1-5.4 3.2-8.6 3.2zm-3.4-22c-.3 0-.6 0-.9.1-1.4.5-2.7 1.5-3.5 2.8-.9 1.2-1.6 2.6-2 4.1-.8 2.5-.5 5.1.7 7.4 1.3 2.1 3.5 3.7 5.9 4.2 1 .3 2 .4 3.1.4 1.9 0 3.8-.5 5.4-1.5 1.6-1.1 2.8-2.8 3.3-4.7.9-3 .4-6.3-1.4-8.9s-4.3-4.6-7.2-5.8v.3.1.1l.1.5c-.2.9-1.2 1-2.1 1-.2 0-.5 0-.8 0h.1c-.2-.1-.4-.1-.7-.1zm.2-3.2c-1.5 0-2.9.6-4.1 1.5 1.2-.8 2.7-1.4 4.1-1.5z"/><path d="m8.7 82.9c0 .7.6 1.3 1.4 1.3.7 0 1.3-.6 1.3-1.3s-.6-1.3-1.4-1.3c-.7.1-1.3.6-1.3 1.3"/><path d="m13.2 83.2c0 .8.7 1.3 1.4 1.3s1.3-.6 1.3-1.3c0-.8-.7-1.3-1.4-1.3-.7.1-1.2.6-1.3 1.3"/><path d="m15.3 89.4c-1.3.1-5.9-.3-6.7.8-1.4 1.9.8 1.9 1.9 2.1 1 .2 5.2.1 5.8-.8.4-.7.3-2.2-1-2.1"/><path d="m30.3 92.6c-.7 0-1.2-.5-1.6-1.4-.8-2 2.2-4.6 3.2-5.4 1.2-1.1 2.7-1.8 4.4-1.8.9 0 1.8.2 2.6.5.7.2 1.4.5 2 .8 1 .5 2.2.8 3.3.9.5 0 1.1-.1 1.6-.2 1.1-.3 2.2-.7 3.3-1.1 1.5-.7 3.1-1.2 4.8-1.4h.6c1.8.1 3.6.5 5.3 1.3 1.2.5 2.3.8 3.5 1.1.8.2 1.6.2 2.4.2 1.9 0 3.8-.5 5.5-1.2s3.4-1.1 5.2-1.2c1.2 0 2.4.2 3.6.6.2.1.5.1.9.3 2.1.6 6.4 1.8 6.6 2.5.2.4.1 1-.1 1.4-.3.4-.8.5-1.3.5-1.3-.1-2.5-.4-3.7-.8l-.2-.1c-.5-.2-1-.3-1.4-.5-1.6-.7-3.3-1.1-5-1.2-.8 0-1.6.1-2.3.3-.9.3-1.7.5-2.5.8-2 .8-4.2 1.2-6.4 1.3-.6 0-1.2 0-1.8-.1-1.2-.2-2.3-.5-3.4-.9-1.5-.6-3-.9-4.5-1h-.1c-1.9.1-3.8.7-5.4 1.5-1.2.6-2.5 1-3.7 1.3-.4.1-.8.1-1.3.1-1.2-.1-2.5-.3-3.6-.8h-.1c-1.1-.4-2.2-.7-3.3-.7-.3 0-.5 0-.8.1-1 .4-1.8 1.1-2.5 1.9-1.3 1-2.6 2.4-3.8 2.4z"/></g></g><g opacity=".4" transform="translate(491.163)"><path d="m-151.5 236.9c-.7 0-1.4 0-2.1-.1-1.4-.2-2.3-.5-2.6-1s-.1-1.3.2-2.2c.2-.5.4-1.1.5-1.7.5-2.4.1-5.4-.3-8.4-.2-1.6-.4-3.1-.5-4.4-.7-18.3-.4-36.7 0-52.5.1-3.8.2-7.7.3-11.4 0-.8 0-1.7.1-2.5 0-.3 0-.6 0-.9.1-1.6.1-3.3-.1-5-.1-.4-.2-.8-.3-1.1-.3-.6-.4-1 .3-2.1 1-1.3 3.6-1.5 5.8-1.5h2.1.1 1.7s.8 0 1.1 0c4.2-.4 8.2-.7 12-.9 12.2-.6 24.5-1.4 36.3-2.2 25.8-1.7 52.5-3.5 78.9-3.5h2.3c4.7-.2 9.3.2 13.9 1.1 1 .2 1.9.4 2.9.5h.4.5.5c.4 0 .7.1 1 .2 1.2.5 2.1 1.6 2.3 3 .5 1.8 0 4.2-.4 6.6-.2 1.2-.4 2.3-.5 3.2-.3 4-.5 8.4-.5 13.4v1.6c-.1 7.6.2 15.1 1 22.7.2 1.9.5 3.8.8 5.6.7 4.9 1.4 10 1.7 15.2.1 1.7.1 3.5.2 5.2.1 2.4.2 4.9.3 7.4v1.3c0 .9 0 1.8.2 2.7.1.4.4.8.7 1 .2.1.3.3.4.6.3 1.2.4 2 0 2.6-.4.5-1.1.8-2.5 1.2-5.4 1.5-11.5 1.7-17.3 1.7-1.2 0-2.3 0-3.4 0h-.3c-1 0-2 0-3 0h.1c-19.8 0-37.7.1-55.6.5-5.4.1-11 .2-16.3.3-12.8.2-25.9.4-38.8 1.5-3 .3-6.1.6-9.1.8-1.2.1-2.4.2-3.5.3-1.3.1-2.6.3-4.1.5-2.5.4-5 .6-7.4.7zm53.7-68.3c4.1 0 8.4 1.4 13.3 4.4 4.1 2.6 7.9 5.5 11.5 8.6l.6.5 3.9 3.3c2.9 2.4 5.9 4.9 8.9 7.3l.6.5.1.1c2.6 2 5.2 4 8 5.8 1 .8 2.3 1.3 3.6 1.4 1.4 0 2.6-.8 4.6-2.1.7-.5 1.4-.9 2-1.4 5.6-3.8 10.8-7.3 17.7-7.9.6-.1 1.3-.1 2-.1 7.6 0 15.3 3.4 20.4 6.3-2.7-14.2-3.5-28.7-2.4-43.2.2-2.5.4-5 .7-7.3 0-.2.1-.6.2-1 .3-.9.4-1.8.3-2.8-.5-1-2.4-1.1-3.9-1.1-.4 0-.8 0-1.3 0h-.1c-.4 0-.8 0-1.1 0-.1 0-.3 0-.4 0-1.9-.1-3.9-.1-6-.1-4.8 0-9.8.2-14.5.3-2.2.1-4.4.1-6.6.2-19.5.5-40 1.6-60.8 3.3-7.7.6-15.6 1.1-23.3 1.5-8.9.5-18.1 1-27.1 1.8-3.4.3-3.4.6-3.4 3.3v1.1c0 .9 0 1.8-.1 2.7v.5c-.1 4.7-.3 9.7-.4 14.8-.2 6.4-.6 12.8-.9 19-.2 3.6-.4 7.3-.6 10.9 5.1-3.1 10-6.7 14.7-10.1 4.6-3.3 9.3-6.7 14.2-9.7 7-4.4 14-8.4 21.6-10.3 1.3-.4 2.7-.5 4-.5z" fill="#97a4af"/><g fill="#bdc5d1"><path d="m.7 84.6c0 2.8-.4 6.9.8 9.5 1.6 3.3 3.7 2.3 4.2-.8.3-1.8.3-7.1-.3-8.7-.8-2.3-4.7-3.8-4.7 0"/><path d="m5.3 85.7c-2.6.1-10.2-.5-12 1.6-3 3.6 2.3 4.2 4.5 4 2.6-.2 10.7.3 12.5-1.8 3-3.5-2.9-3.9-5-3.8"/><path d="m-136.1 269.8c-3.2-.1-6.4-1.1-9-2.9-2.7-1.7-4.7-4.2-5.9-7.1-1.2-3.4-.8-7.1 1.1-10.1.9-1.6 2.2-3 3.7-4.1s3.3-1.9 5.2-2.2c1-.2 2-.2 2.9-.2 2.9 0 5.7.7 8.1 2.1 2.5 1.4 4.4 3.7 5.4 6.4 1.1 3.4.9 7.1-.5 10.3-.7 1.6-1.6 3.1-2.9 4.4-1.2 1.3-2.7 2.2-4.3 2.8-1.2.4-2.5.6-3.8.6zm-1-21c-3.5 0-7.9 1.8-9.4 5.2-.6 1.3-.6 2.9 0 4.2 1.2 2.8 4.5 5.1 7.3 6.1 1 .4 2.1.6 3.1.6 4.3 0 6.6-3.7 6.9-7.1.5-4.4-2.6-8.5-7.1-9-.2 0-.5 0-.8 0z"/><path d="m-71 250.9c-2.9.2-5.3 2.2-8.2 2.6-2.7.3-4.9-.6-7.5-1.3-2.9-1-6-1.2-9-.5-2.4.6-4.7 2.2-7.2 2.4-4.9.4-10.5-5.2-14.3 1.1-1.8 3 .8 5 3.5 3.5 2.8-1.5 1.5-2 5-1.1 2.9.7 5.3 1.1 8.3.1 2.7-.9 5-2.6 7.9-2.8 2.8-.2 5.3 1.1 8 1.7 3.2.6 6.4.3 9.5-.9 3-1 4.2-1.5 7.2-.7 1.9.6 6.1 2.3 8 .9 3.2-2.5-1.1-2.9-2.8-3.2-2.7-.5-5.6-2.1-8.4-1.8"/><path d="m-5.3 262.7c-2.8 0-5.5-1.1-7.5-3-1.9-1.8-3.1-4.2-3.4-6.8-.3-2.2.1-4.4 1.2-6.3 1.4-2.1 3.6-3.7 6.1-4.3.2 0 .4-.1.6-.1 1.8 0 5.1 1.6 6.5 2.4 2 1.2 3.5 3 4.3 5.2 1.1 2.9.9 6.2-.6 8.9-1.1 2-3 3.4-5.3 3.7-.5.3-1.2.3-1.9.3zm-3-14.1c-1.6.3-2.6 1.8-2.3 3.4.3 1.3.9 2.4 1.9 3.3.9.9 2.1 1.5 3.4 1.5h.2c1.6-.1 2.6-.8 2.6-2.1-.1-1.4-.8-2.8-1.8-3.8-1-1.3-2.4-2.1-4-2.3z"/></g></g><g opacity=".5"><path d="m722.4 105.1c-.9-2.3.4-3.3 2.3-3.8-.2-1.7-.3-3.3-.2-5-.1-2.9-.1-5.8-.2-8.6-.3-6.8-.4-13.7-1-20.6-.5-6.5-1.8-12.9-1.8-19.4 0-4.5-1.3-15.7 2.6-18.8 6.7-3.9 4.1 9.9 3.9 12.3-.2 7.1 0 14.2.8 21.2.7 6.5-.1 13.1-.4 19.6-.1 3.5-.2 7-.5 10.4-.1 1.1 0 6-.5 8.6h2.4 1.2c5.4-.2 10.9-.3 16.3-.5 20.9-.8 41.8-.4 62.6-1.4 19.7-.9 39.5-1.1 59.3-1.4 1.1 0 2 1 1.9 2.1 0 .5-.2.9-.5 1.3-1.1 1.4-6.1 1.1-7.7 1.2-5.6.4-11.1.6-16.7.7-11.8.1-23.5.6-35.2 1.3-20.8 1.2-41.7 1.1-62.6 1.9-5.1.2-10.1.4-15.2.5-1.4 0-3.8.5-6.1.5-2.1-.1-4.1-.5-4.7-2.1zm150.7-18.3c-.4-7.6-1-15.2-1.7-22.8-1.1-12.3-2.1-24.2-2.1-36.5 0-2.9 3.5-3.5 5.1-1.5 1.5 1.9.5 7.7.6 9.9.1 7.5.8 14.9 1.5 22.4.7 7.4 1.1 14.8 1.7 22.2.2 3.4 2.9 17.1-1 19.1-.4.2-.8.3-1.2.3-3.5 0-2.8-11-2.9-13.1zm-148.9-58.8c-1.3-.5-2.3-1.2-1.6-2.7.6-1.2 2.6-1.1 4.1-1 .5 0 .9.1 1.2.1 4.9-.1 9.8-.4 14.8-.7 11.2-.7 22.3-1.5 33.5-1.7 21.3-.4 42.6-1.5 63.9-1.7 6.3-.1 12.6.1 18.9.4 2.8.2 5.6.3 8.4.4.5 0 1.2 0 2-.1 1.7-.1 3.7-.2 4.7.3 5.6 2.9-5.8 3.3-7.2 3.2-5.8-.1-11.6-.5-17.3-.7-21.3-.5-42.7.8-64 1.6-10.2.4-20.4.5-30.7 1.1-5.6.3-11.2.7-16.8 1-2.6.1-5.2.3-7.7.3-1.1 0-3 .3-4.5.3-.5.1-1.1.1-1.7-.1z" fill="#97a4af"/><g fill="#bdc5d1"><path d="m749.6 88.3c-1.4 0-2.3-.3-2.4-2-.2-2.1 3.2-3 4.6-3.7 4.7-2.4 9.4-4.7 14.2-6.9 9.4-4.5 18.9-8.8 28.5-13l.2-.1c-5.3-1.8-10.6-3.5-15.9-5.3-3-1-24.4-6.2-23.6-9.1.9-3.2 19.7 4.3 22.7 5.2 7.1 2.3 14.3 4.6 21.4 7.1 17-7.6 34.2-15.8 52-21.4 1.1-.3 1.8.8 1.6 1.8-.3 1.3-4.3 2.3-5.4 2.8-4.4 2-8.8 3.9-13.1 5.8-9.5 4.3-19.1 8.5-28.6 12.7l-.6.3c6.7 2.4 13.4 4.9 20 7.4 3.5 1.4 7.1 2.8 10.6 4.2 1.8.7 9.1 2.4 9.6 4.2.6 2.5-7.3-.6-8.5-1-3.5-1.1-7-2.4-10.5-3.6-7.8-2.8-15.6-5.7-23.4-8.4l-2.2-.8c-8.3 3.7-16.6 7.5-24.9 11.3-4.4 2.1-8.8 4.1-13.2 6.3-3.6 1.7-9.4 6.2-13.1 6.2z"/><path d="m738.4 136.8c-2.9.1-5.7-.8-8-2.5-1.4-1.1-2.4-2.5-2.9-4.2-.3-1.3-.4-2.6-.2-4-.1 0-.3 0-.4 0-.6 0-1.2-.3-1.6-.9-.3-3.7 3.1-6.9 5.1-8.5 2.8-2.2 6-3.7 9.5-4.4.4-.1.8-.1 1.2-.1 2.9.1 5.7 1.3 7.6 3.5 2.3 2.5 3.6 5.7 3.5 9.1-.1 3.1-1.4 6-3.7 8.2-2.3 2.1-5.2 3.4-8.2 3.7-.6.1-1.2.1-1.9.1zm2.9-20.7c-.9-.1-1.7.3-2.1 1.1-.3.7-.9 1.2-1.6 1.5-.4.1-.8.2-1.1.2-.5 0-1 0-1.4.2-1.1.7-2 1.7-2.6 2.9l-.1.1c-1.6 2.7-2 5.5-1 7.6.9 1.9 2.8 3.1 5.5 3.5.6.1 1.2.1 1.8.1 4.5 0 9.5-2.5 10.1-8 .4-4.4-2.6-8.5-6.9-9.3-.2.1-.4.1-.6.1z"/><path d="m765.7 120.3c-2.4 1.3-6.2 3.2-7.5 5.6-1.5 2.5.1 5.3 3.2 4.1 2.5-1 4-4 6.7-4.9 2.3-.9 3.3-.4 5.7.4 2.5.9 4.7 1.7 7.5 1.5 3.4-.3 6.4-2.3 9.8-2.7 2.8-.4 5.2.7 7.9 1.2 3.1.5 5.2-.7 8.2-1.3 2-.4 5.5 1.3 7 .7 3.3-1.4-.2-3.2-2-3.8-3.1-1-5-.1-7.9.7-3.2.9-4.5.2-7.6-.6-6.1-1.6-10.9 2.3-16.7 1.6-5.4-.7-8.7-5.5-14.3-2.5"/><path d="m862.6 131.6c-3.1.1-6.1-1.1-8.4-3.2-1.4-1.5-2.1-3.5-1.8-5.5.1-2.8 1.5-5.3 3.7-7 2.2-1.6 4.8-2.6 7.5-3 .5-.1 1.1-.2 1.6-.2 2 0 3.9.9 5.1 2.5s1.9 3.6 1.9 5.7c.1 2.5-.6 4.9-2 7-1.5 2.2-4 3.5-6.7 3.7-.2-.1-.5 0-.9 0zm2.6-14.3c-2.5 0-5.7.8-7.1 2.7-.9 1-1.3 2.3-1.2 3.7.2 1.1.8 2 1.8 2.6 1.1.8 2.5 1.3 3.9 1.3 2.3 0 4.4-1.4 5.2-3.5.9-2.3.2-4.8-1.9-6.7-.3 0-.5-.1-.7-.1z"/></g></g><g opacity=".5" transform="translate(0 448.49)"><g fill="#bdc5d1"><path d="m54.9-49.2c-8.5.1-16.9.4-25.3.9-8 .5-16.7.1-24.5 1.7-2.2.4-5.3 2.4-2.3 4.7 2.1 1.6 9.7-.2 12.2-.4 9.2-.6 18.4-1.2 27.6-1.6 8.7-.3 17.4-.4 26.1-.5 1.3 0 3.5-.4 4.9-.1 1.9.6 1.5.7 1.6 3.1.3 4.4.2 8.8.1 13.1-.1 4.2-.2 8.5-.2 12.7 0 3-1 9 .6 11.7 2.2 3.8 4.4-.3 4.6-2.8.3-4.8.2-9.7.2-14.5 0-4.5 0-9-.1-13.5-.1-3.3.4-9-1.4-11.9-1.8-3-6.1-2.4-9.2-2.5-5.1-.2-10-.2-14.9-.1"/><path d="m1.3-43.8c0 8.5-1 16.9-1.2 25.4-.1 3.9-.4 8.2.6 12 1 3.9 4.2 4.7 4.5.4.7-8.7.5-17.8 1.1-26.6.2-3.1 1.5-8.8.3-11.7-1.1-2.6-5.3-3.1-5.3.5"/><path d="m80.3-6.4c-14.6 1.9-29.9 1.2-44.7 1.5-7.1.1-14.1.2-21.2.2-2.5 0-8.7-.9-10.9.5-3.4 2.2.3 3.9 2.5 4 14 .3 28.1-.3 42-.8 6.3-.2 12.6-.3 18.8-.8 4-.2 7.9-.8 11.8-1.7.8-.2 2.5-.2 2.7-1.3.2-.6 0-1.7-1-1.6"/><path d="m19.4 5.9c-4.1 0-16.3-1.9-18 2.1-2.2 5.3 6.5 4.1 8.9 4 5.3-.1 10.7-.2 16-.2s10.5 0 15.7-.2c1.5 0 5.1.6 5.9-1.2.6-1.1.2-2.5-.9-3.1-.1 0-.1-.1-.2-.1-3-1.8-10.6-.7-14.1-.9-4.3-.1-8.8-.4-13.3-.4"/><path d="m68.9 6.9c-2.3.1-7-.8-9.1.2-2.4 1.2-1.5 3.1.5 3.9 1.4.6 7.2.3 8.6-.4 1.4-.6 3.1-3.9 0-3.7"/><path d="m94.4-43c-2.5.7-1.7 14.8-1.8 17-.2 6.1-.9 13.8 1.2 19.7 1.3 3.8 3.8 3.2 3.4-.7-.4-3.5-1-6.9-1.3-10.4-.7-7.9-1.5-16.3-1-24.2.3.5 2.6 4.7 3.2 4.4-.2.1-2.7-6-3.7-5.8"/><path d="m122.3-48.1c-5 .1-10 .2-15.1.3-4 .1-10.3-.5-13.9 1.1-4.4 2-2.3 6.5 1.8 6.5 3.6.1 7.5-.7 11.1-.9 9.9-.3 19.8-.4 29.6-.5 8.9-.1 18.2.9 27.1-.5 1.3 11.7-2.2 23.4-1 35.2.2 1.8.1 4.4 2.4 4.8 2.9.5 3.1-2.4 3.2-4.5.3-6 .1-11.9.6-17.9.4-5.5 1.2-11.2.5-16.7-.8-6.8-4.1-6.3-9.9-6.6-12.1-.4-24.2-.5-36.4-.3"/><path d="m105.5-6.7c-2.6.1-6.8-.7-8.4 1.7-1.7 2.6.3 4.8 2.8 5.3 2.9.6 6.8-.2 9.8-.2h9.5c13.6.1 27.3.3 40.9-.3 1.9-.1 7.3.6 8.6-1.3 1.2-1.6.4-3.1-1.2-3.9-2.5-1.3-7.7-.8-10.5-.9-3.5-.1-6.9-.2-10.4-.2-13.7-.2-27.5-.6-41.1-.2"/><path d="m117 5.1c-5.1.1-10.5-.1-15.6.6-4.4.7-5 5-.2 5.5 4.4.5 9.7-.4 14.1-.7 1.6-.1 3.4 0 4.1-1.7.5-1.4-.2-3-1.7-3.6-.2-.1-.4-.1-.7-.1"/><path d="m155.5 5.5c-2.7.1-10.7-1.1-12 2-2.2 5.2 8.5 3.2 10.6 3.1 2.6-.1 12.7 1.4 12.7-2.7 0-4-8.8-2.4-11.3-2.4"/></g><path d="m.8 31.2c0 9.4-.6 18.9.3 28.3.4 3.9.3 11.3 2.5 14.6 1.6 2.3 3.8 2.2 4.7-.6.6-1.9-.3-5.6-.5-7.6-.1-1.9-.2-3.8-.3-5.8-.2-5-.2-9.9-.1-14.9.1-4.3 1.1-9.9.1-14-.9-3.8-6.7-4.7-6.7 0" fill="#97a4af"/><path d="m95.3 22.9c-16.3.4-32.7 0-49 .9-8 .4-16 1.3-24 2.1-3.9.4-7.9.9-11.8 1.4-1.2.1-11 .5-7.3 4.3 1.6 1.6 6.8-.1 8.8-.3 3.9-.5 7.9-.9 11.8-1.3 7.5-.8 15-1.5 22.6-2 17.7-1 35.6-.7 53.3-1.3 4.8-.2 9.6-.3 14.4-.1 1.3.1 10.5.5 6.5-2.9-1.9-1.6-9.1-.8-11.5-.8-4.5-.2-9.1-.1-13.8 0" fill="#97a4af"/><path d="m4.8 77.8c-.4-5.3 13-5.3 16.9-5.7 16.5-1.5 33.2-1.2 49.7-1 8 .1 16 .4 23.9-.1s16.2-.4 24.1-1.2c-1-4-.9-8.9-1.2-12.9-.7-10.4-.5-20.8-1-31.1-.2-4.6 6-5.3 7.9-1.6s.7 11.2.8 15.3c.3 9.6 2.1 20.3.2 29.8-.7 3.3-3.4 5-5.3 3.2-.7 1-2.9 1-4.5 1-.4 0-.8 0-1.1 0-4.4.3-8.7.8-13 1.4-8.6 1.3-17.3 2.1-26 2.3-17.3.4-34.6 0-51.9 1.2-3.8.2-7.6.7-11.3 1.4-1.6.4-3.2.7-4.8.8-1.8.2-3.3-.5-3.4-2.8z" fill="#97a4af"/><path d="m130.8 29.1c-2.2.3-4 2.2-3.1 4.6 1.2 3 4.9 1.8 7.4 1.6 7.8-.6 15.8.6 23.5-.3 2.1-.3 5.1-1.4 3.2-4.2-1.4-2.1-6.6-1.7-8.7-1.9-7.4-.7-14.9-.6-22.3.2" fill="#97a4af"/><path d="m143.9 42.2c-3 .2-10 0-11.3 3.5-2.3 6.1 6.6 4 9.3 3.6 3.1-.4 10.6.7 12.2-2.4 3.1-5.4-7.6-4.8-10.2-4.7" fill="#97a4af"/><path d="m136.1 55.7c-1.4 1.5-1.4 3.9 0 5.4 1.7 1.7 5.6 1.4 7.9 1.5 3.2.2 12.4 1.9 14-1.9 2.1-5.1-6.2-5-8.9-5.3-3.2-.3-10.3-2.3-13 .3" fill="#97a4af"/><path d="m23.8-31.4c0 5.5 8.5 5.5 8.5 0s-8.5-5.6-8.5 0" fill="#bdc5d1"/><path d="m40-31.4c0 6.3 9.7 6.2 9.7 0s-9.7-6.3-9.7 0" fill="#bdc5d1"/><path d="m30.2-23.1c-4.7 1.3-.4 5.3 1.8 6.2 3.5 1.5 8.3 2.5 11.8.3 1.4-.9 2.5-2 1.5-3.7-1.1-1.8-2.6-1-4.2-.8-1.9.3-3.9.1-5.8-.5-1.6-.4-3.4-1.9-5.1-1.5" fill="#bdc5d1"/><path d="m116.1-31.1c0 3.7 5.7 3.7 5.7 0s-5.7-3.7-5.7 0" fill="#bdc5d1"/><path d="m128.8-30.5c0 4.1 6.4 4.1 6.4 0s-6.4-4.1-6.4 0" fill="#bdc5d1"/><path d="m128.3-21.6c-3.4.4-13.1 1.4-13.6 5.6-.8 6.4 9.8 1.2 12.2.7 3-.5 6-.6 8.9-.3 1.7.1 3.9.3 3.8-2.2-.3-4.4-8.4-4.2-11.3-3.8" fill="#bdc5d1"/><path d="m44 37.2c-2.4.6-5.6 4.9-3.9 7.4 2.7 4.2 4-2.3 5.1-2.9 2.1-1.1 3.8 3 6 .8 3.3-3.3-5.1-5.9-7.2-5.3" fill="#97a4af"/><path d="m49.7 51.4c-4.6 2.7 3 8.5 5.6 9.2 4 1.1 12-.9 12.9-5.8.4-1.9-.8-3.7-3-3.3-1.8.3-2.9 2.5-4.5 3.3-1.9 1.2-4.4.9-6-.6-1.4-1.4-2.3-4.4-5-2.8" fill="#97a4af"/><path d="m53.1 91.3c-4.1.9-8.3.3-12.4 1.1-4.2.8-6.7 2.4-10.7.8l-.6-.2c-3-1.3-6.2-1.7-9.4.4-1.9 1.2-7.6 5.5-6.9 8.1 1.5 5.6 7.9-3.2 9.6-4.1 3.1-1.6 5.3.5 8.5 1 3.9.7 7-1.3 10.6-2.1 4.2-.9 9-1.3 13.3-1.8 1.7-.2 8.2 1.1 8.8-1 .9-3.6-9.2-2.6-10.8-2.2" fill="#97a4af"/><path d="m93.2 107.6c-3.1 0-5.5-.1-7.7-.3-1.5-.1-3-.4-4.4-1-1.3-.7-2.2-2-2.5-3.5-.6-2.1-1.1-4.3-1.4-6.6-.4-3.3 0-5.2 1.1-5.8.4-.2.8-.2 1.2-.2h.7.6.4c1-.2 2-.4 3.1-.7 1.4-.4 2.8-.7 4.3-.9 4.1-.5 8.5-.9 13.5-1.1h.1c.8 0 1.7-.1 2.7-.1 1.9-.1 3.8.2 5.6.7 1.7.4 3.1 1.6 3.9 3.2 1.4 3.2-.3 9.8-2 12.8-1.8 3.1-5.2 3.6-8.8 3.6-.7 0-1.3 0-1.9 0-.6 0-1.2 0-1.8 0h-.4-1.7c-1.7-.1-3.2-.1-4.6-.1zm-11.8-15c.1.5.1 1.4.2 2.5.2 2.8.4 6.5 1.2 7.5.8.9 3.6.9 5.2.9h1c2.6.2 5.2.2 7.8.3h.1c1 0 2.2.1 3.3.1.6 0 1.4.1 2.2.2 1.2.2 2.4.3 3.7.3.8 0 1.5-.1 2.2-.4 1-.5 2.2-2.6 2.9-5.4.7-2.3 1.1-5.5.2-6.9-.8-1.3-2.9-1.9-6.2-1.9-2.9.1-5.7.4-8.5.8-1 .1-1.8.3-2.4.3-1.3.2-2.6.4-4 .7-2.2.6-4.5.9-6.8 1-.7.3-1.4.2-2.1 0z" fill="#97a4af"/><path d="m144.5 109.4c-4.7 0-9.4-.2-14.1-.7-2.9-.3-4.6-.9-5.9-2-1.4-1.2-2.1-3-2.4-5.7-.1-.6-.2-1.4-.3-2.2-.6-4.1-1.4-10.4 1.8-12.4 2.4-1.5 7.2-1.7 10.8-1.8.8 0 1.6-.1 2.3-.1h1.2c2.2.1 4.4.2 6.6.6 1.8.2 3.6.5 5.4.5 3.1.1 5 .4 6.4 1.3s2.3 2.5 2.9 5.4c.1.4.2.7.4 1.1.3.5.4 1.1.5 1.7-.1 1.5-.3 3-.7 4.4-.2.7-.3 1.3-.4 1.9-.5 2.9-1.5 4.9-3.2 6.1-1.5 1.2-3.6 1.7-6.6 1.8-1.6.1-3.2.1-4.7.1zm4.2-7c-1.7.3-3.6.7-6 1.1l-.3.1-.6.1h-.2c.7.1 1.3.1 1.9.2.7.1 1.3.2 2 .2 1.3.1 2.5-.6 3.2-1.7zm-14-.3-.3.1-1.2.4h-.1-.1l-.2.1-.4.1c.9.1 1.8.2 2.6.3-.2-.3-.3-.7-.3-1zm-5.5-3.1c-.1 0-.3 0-.4.1s-.1.2-.1.3c0 .2 0 .3.1.5 0 .1.1.1.2.1.3 0 .7-.3 1.3-.8-.2 0-.3 0-.5-.1-.2-.1-.4-.1-.6-.1zm15.6-7.7c-.1 0-.2.1-.2.1-.2.1-.3.2-.2.3.2 0 .4-.1.6-.2h.1c-.1-.1-.2-.1-.3-.2zm8.4-1.4c.8 1.2 1.3 1.3 1.4 1.3s.1-.1.1-.1c0-.4-.5-1.1-1.5-1.2z" fill="#bdc5d1"/></g><g fill="#bdc5d1" opacity=".5" transform="translate(541.767 418.288)"><path d="m509.6-163.8c-4.1 0-8.2-1.1-11.7-3.1-3.5-1.9-6.4-4.7-8.4-8.2-1.4-2.5-2.1-5.3-2.1-8.1.1-3.2 1.1-6.3 2.8-9-1.1-.2-1.7-.6-1.8-1.2-.2-1.6 3.5-3.9 4.4-4.4l.3-.2c3.2-1.7 6.5-3.5 10-4 1.5-.2 3-.3 4.5-.3 4 0 8 .8 11.6 2.4s6.7 4.3 8.6 7.8c1.1 2 1.8 4.2 1.9 6.5.2 2.2-.1 4.5-.7 6.7s-1.6 4.3-2.8 6.2-2.8 3.6-4.5 5c-3.4 2.5-7.7 3.9-12.1 3.9zm-2.4-33.9c-4.7 0-9.3 1.9-12.5 5.4-2.6 2.9-3.7 6.7-3.2 10.6 1 7.8 8.9 14.4 17.2 14.4h1.1c7.9-.7 14.3-6.7 15.5-14.6.6-3.4-.4-7-2.7-9.6-3.1-3.6-8.9-6-15.1-6.1 0-.1-.2-.1-.3-.1z"/><path d="m501-185.9c0 3.5 5.5 3.5 5.5 0s-5.5-3.5-5.5 0"/><path d="m511.2-185.3c0 3.8 6 3.8 6 0s-6-3.9-6 0"/><path d="m504.3-177.7c-.8 2.9 8.3 4.4 8.7 1 .1-1.6-8.1-3.1-8.7-1"/><path d="m531.1-179.5c10.5-1.3 21.4-.7 32-.4 2.6.1 5.3.2 7.9.2 1.7 0 5.3.8 6.8 0 6-3.2-5.8-4.8-7.5-4.9-12.4-.9-24.9-1.1-37.3-.8-3.1.2-3.7 6.1-1.9 5.9"/><path d="m527.1-159c-4.1.3-7.8 2.3-11.9 2.3-3.4 0-6.8-1-10.3-.9-4.1.2-6.3 2.8-9.8 3.7-2.8.7-4.6-1.5-7.1-2.4-3.1-1.2-5.5-.6-8.1 1.2-2 1.3-6.6 4.4-6.5 7.1.1 8.2 9.7-3.1 11.6-3.3 2.6-.2 5.4 2.7 8.2 2.9 3.6.2 5.9-2.1 9.3-3s7 .2 10.4.5c3.9.4 7.2-.5 10.9-1.4 3.4-.9 6.9-.9 10.4-.1 2.5.5 8.6 3.4 9.7-.3 1.4-5.1-14-6.6-16.8-6.3"/><path d="m528.3-143.3c-8.3.8-16.7 1.5-25 1.7-3.6.1-17.5-1.5-16.3 3.1 1.1 3.9 20 1.5 23.8 1.2 4.3-.3 8.5-.8 12.7-1.3 1.5-.2 5.1 0 6.2-1.3 1.1-1.2.6-3.6-1.4-3.4"/><path d="m473.6-108.9c-2.6 0-5.1-1.3-6.7-3.3s-2.5-4.5-2.6-7.1c-.1-3.9 2.1-8.2 8.4-8.4h.1c.5 0 .9.2 1.2.5.2.2.5.4.8.5.2-.1.5-.2.6-.3l.1-.1c.3-.2.6-.3.9-.4 2.7.2 4.4.7 5.9 2.9.7 1.2 1.1 2.5 1.2 3.9 0 1.5-.2 3-.7 4.4-1.1 3.3-3.4 5.9-5.9 6.8-1 .4-2.1.6-3.3.6zm1.9-14.3c-.3 0-.7.1-1 .3-.5.3-1.1.5-1.7.5-2.2 0-3.4 1.2-3.4 3.1.1 1.3.6 2.6 1.4 3.6.8 1.1 2 1.7 3.3 1.8 1.1 0 2.1-.5 2.8-1.3.9-1 1.5-2.1 1.7-3.4.2-.9.5-2.6-.4-3.7-.5-.6-.7-.6-1.1-.7-.2 0-.5-.1-.7-.1-.3 0-.6-.1-.9-.1z"/><path d="m508.4-110.8h-.2c-2.1 0-4.1-1-5.5-2.6-1.6-1.9-2.3-4.4-2-6.8.5-4.4 3.3-6.8 8.6-7.5.3 0 .7-.1 1-.1 1.6 0 3.1.6 4.2 1.8 1.5 1.9 2.3 4.3 2 6.7-.1 2.1-.9 4.2-2.3 5.8-1.4 1.8-3.5 2.8-5.8 2.7zm-1.2-10.9c-1 .7-1.4 2.1-1 3.3.2 1.2 1.2 2 2.4 2.1.3 0 .6-.1.9-.2 1-.6 1.7-1.6 2-2.7.2-.6.1-1.2-.3-1.7v.1s-.1 0-.2 0c-.8-.1-1.5-.2-2.2-.4s-1.3-.3-1.5-.4z"/><path d="m556.3-111.6c-1.8 0-3.6-.7-4.9-2-1.2-1.2-1.9-2.8-2-4.6-.2-1.9.2-3.8 1.3-5.3 1.2-1.8 3.1-3 5.2-3.4-1.2-.7-1.7-2.2-1-3.4.4-.8 1.2-1.4 2.1-1.5 3 0 6.5 7 6.8 8.8.4 2.3.3 4.6-.5 6.8s-2.6 3.9-4.9 4.3c-.8.2-1.5.2-2.1.3zm2.1-9.9c-3.1.3-3.4 1.6-3.4 2.1.1.9.8 1.7 1.8 1.7.4 0 .7-.2.9-.4.5-.4.9-1.3.7-3.4z"/></g><g opacity=".5" transform="translate(1028.138 481.083)"><path d="m470-137.7c0 5.7-.3 11.5.8 17.1.3 1.7.6 5 2.4 5.8 1.3.7 3 .2 3.7-1.1.1-.3.2-.5.3-.8.5-2.1-.6-5.4-.7-7.6-.2-3.1-.2-6.2-.2-9.2 0-2.2.7-5.8-1.9-7-1.8-.7-3.6.1-4.2 1.8-.2.3-.2.7-.2 1" fill="#97a4af"/><path d="m566.7-114.8c-16.3 1.5-33.1 0-49.5.6-8.6.3-17.2.8-25.8 1.1-3.7.1-7.4.1-11.2.2-1.8 0-9.9 1.1-4.9 4.6 2.2 1.6 9.3.3 11.8.3 3.8 0 7.6-.2 11.5-.4 8.9-.3 17.7-.8 26.6-1.1 8.5-.2 16.9-.3 25.4-.5 4.2 0 8.5-.3 12.7-.9.9-.1 4-.2 4.7-1.3.6-1 .2-2.8-1.3-2.6" fill="#bdc5d1"/><path d="m490.5-117.6c-2.4 0-4.8-.9-6.5-2.6-1.6-1.6-2.5-3.6-2.7-5.8-.2-2 .4-4 1.6-5.7 1.6-1.9 3.8-3.1 6.3-3.5h.4c.5 0 .9.2 1.3.4.3.2.7.3 1.1.4h.3c.3 0 .7 0 1-.1s.7-.1 1-.1.5 0 .8.1c2.3.7 3.8 3 4.5 4.9.4 1.2.6 2.6.5 3.9-.2 2.5-1.5 4.8-3.5 6.3-1.1.8-2.3 1.3-3.6 1.6-.9.1-1.7.2-2.5.2zm2.6-11.7c-2.1 0-5.9.5-6.6 2.1-.3.7 0 1.6 1 2.6.8.9 1.9 1.4 3.1 1.4 1.5 0 2.9-.9 3.6-2.3.4-1.3 0-2.8-1.1-3.8z" fill="#97a4af"/><path d="m539.3-130.2c-7.9 0-15.8.4-23.8.5-2.4 0-8.7-1-8.7 2.8 0 4.1 6.9 2.6 9.3 2.5 7.9-.2 15.7-.5 23.6-1.3 2-.2 8.8.1 8.8-2.6 0-2.8-7.6-1.9-9.2-1.9" fill="#97a4af"/><g fill="#bdc5d1"><path d="m558.2-103.5c-19.5.5-39.1.7-58.7 1.7-7.3.4-14.6.7-22 .7-1.4 0-4.3-.5-5.6.3-3.6 2.4.5 4.5 2.9 4.6 16.1.9 32.4-1.3 48.5-1.8 9.4-.3 18.8-.4 28.2-.9 2.6-.1 5.1-.3 7.7-.5 1.5-.1 5.4.2 6.6-.7 5.2-3.7-5.8-3.5-7.6-3.4"/><path d="m468.4-94c-.3 5-.1 10.1.5 15.1.3 2 .4 4.2 2.7 4.7 2.1.5 3.2-1.1 3.6-2.9 1.1-4.3.1-10.6.1-15.1 0-2.2 0-4.7-2.8-5.2-1.9-.4-3.7.9-4.1 2.8z"/><path d="m579-81.7c-31.7 1.7-63.4 3.2-95.1 4.5-2.5.1-21.7-.1-15 6.6 2.1 2.1 7.4.7 10.1.5 4-.2 8.1-.3 12.1-.6 16-.8 32-1 48-1.9 8.8-.5 17.6-1.3 26.3-2.3 4.2-.5 9.3-.4 13.2-2.1 2.1-.8 4.3-4.9.4-4.7"/><path d="m560.8-107.5c-2.4 2.4-1.2 7.1-1 10.1.3 4.1.6 8.2 1.1 12.2.3 2.6.2 6.7 1.6 9 1.1 1.8 3.5 2.4 5.4 1.3.6-.4 1.1-.9 1.4-1.5 1.3-2.3.7-7.1.6-9.6 0-3.5-.3-7-.5-10.5-.2-2.9.5-7.6-1.1-10.1-1.4-2.3-4.3-3-6.6-1.7-.4.4-.7.6-.9.8"/><path d="m490.9-80.1c-.5 0-1.1 0-1.6-.1-2.7-.4-5-2.1-6.4-4.4-1-1.8-1-4 0-5.9.9-1.6 2.4-2.8 4.2-3.2 1.8-.5 3.7-.8 5.6-.8h.5.5c2.1 0 4 .9 5.5 2.4 1.3 1.3 1.9 3.1 1.8 4.9-.2 2.3-1.5 4.3-3.5 5.4s-4.3 1.7-6.6 1.7zm-2.5-8.7c-.1 0-.3.1-.4.2-.5.6-.6 1.5 0 2 .6 1 1.7 1.5 2.8 1.5 2.3 0 4.7-1.7 4.8-3 0-.5-.2-1.1-1.7-1.4h-.1c-1.5.2-2.9.5-4.2 1.1-.1 0-.1 0-.2 0-.2 0-.4-.1-.5-.2s-.3-.1-.5-.2z"/><path d="m523.2-92c-3.7.1-11-1-14.3.8-3.2 1.8-1.8 5 1.1 5.7 1.9.5 5.1-.3 7.1-.4 2.6-.1 5.3-.1 7.9-.2 4.4-.1 8.9 0 13.3 0 4.5 0 9.2.1 13.7-.2 5.7-.4 5.6-4.7 0-5.3-9.4-.9-19.3-.6-28.8-.4"/><path d="m513.7-43.9c0 2 1.8 0 1.8 0s-1.8-2-1.8 0"/><path d="m472.7-60.3c.1 5.9.2 11.9.4 17.8.1 1.9-.5 5.5 1.8 6.5 2.5 1.1 3.3-1.6 3.6-3.4.9-5.7 0-12.2-.1-18 0-1.9.4-4.6-1.8-5.6-1.4-.5-3.1.2-3.7 1.7-.1.3-.2.7-.2 1"/><path d="m573.2-43.9c-1-.1-1.9-.7-2.3-1.6-.9-1.4-.5-4-.1-6.4.2-1.3.4-2.6.3-3.9 0-.2 0-.5-.1-.7-.1-1.7-.2-3.2-1.7-3.8-.7-.2-1.4-.4-2.1-.3-.8 0-1.8.1-2.6.2-.7.1-1.4.1-1.9.1-4.5 0-9.1 0-13.5 0-13.6 0-27.7.1-41.6.4-8.2.2-14.5.4-20.3.7-3.1.1-6.2.5-9.3 1.1-1.3.3-2.5.4-3.8.4-1.6 0-2.5-.3-2.8-.9s0-1.4.9-2.5c1.5-1.9 6.7-2.3 9.9-2.5.6 0 1.1-.1 1.5-.1 3.4-.3 6.9-.5 10.2-.6l1.5-.1c8.1-.3 16.4-.5 24.4-.6h3c4.8-.1 9.8-.1 15.2-.1 4 0 8.2 0 12.8.1 5.3 0 10.7.3 16.5.8 2.3.2 4 .3 5.3 1s2.1 2 2.8 4.4c1 3.4 2.1 7.7 1.4 11.4-.5 1.6-2 3.5-3.6 3.5z"/><path d="m558.6-40.5c-19.8 2.3-40.1.9-60 1-4.8 0-9.7.1-14.5.3-2.5.1-8.6-.6-10.3 1.4-3.7 4.1 3 4.8 5.4 4.6 4.9-.3 9.8-.5 14.7-.5 17.3-.1 34.7.7 52-.2 7.2-.5 14.4-1.5 21.4-3 1.6-.3 12.3-2.4 6.2-4.8-3.7-1.5-11.1.7-14.9 1.2"/><path d="m498.2-41c-2.7.1-5.4-1-7.3-3-3.3-3.8-1.1-7.6 1.5-10.9.6-.7 1.4-1 2.3-.9.9 0 1.8.2 2.7.4.5.1.9.2 1.3.3.3 0 .5.1.8.1 2.1.3 3.3.4 4.9 2.2 1.5 1.7 2.3 4.1 2 6.4-.3 1.7-1.3 3.2-2.8 4-1.6.9-3.5 1.4-5.4 1.4zm.7-8.8c-.8-.1-1.5.1-2.1.6-.1.1-.2.3-.2.5.1.5.9 1.1 2.2 1.1.5 0 1.1-.1 1.6-.2-.2-.7-.5-1.4-1-1.9-.1-.1-.3-.1-.5-.1z"/><path d="m519.9-48.8c0 4.4 19 2.5 22.4 2.5 2.8 0 19.9 1.6 18.7-3-1-3.7-17.9-1.9-21.4-1.9-3.2.1-19.7-2-19.7 2.4"/></g></g><g fill="#bdc5d1" opacity=".5" transform="translate(572.212 644.498)"><path d="m49.4-316.5c-2 0-3.9-.3-5.8-.9-2-.6-3.9-1.5-5.7-2.6-4.2-2.5-7.6-6.1-10-10.4-2.4-4.2-3.5-9.1-3.1-14-.5.4-1.1.6-1.7.6-.5 0-1-.3-1.3-.8-.6-1.5-.6-3.1.1-4.5 1.1-1.8 2.3-3.6 3.7-5.1.2-.3.5-.6.7-.9 1.9-2.5 4.3-4.4 7.1-5.8 2.8-1.3 5.9-2 9.1-1.9h.4c5 0 9.9 1 14.5 2.8 2.3.9 4.4 2.2 6.4 3.8 3.9 3.1 6.5 7.5 7.2 12.5.4 2.5.3 5-.1 7.4-.8 4.9-3.1 9.5-6.5 13.1-3.9 4.2-9.3 6.6-15 6.7zm-6.7-40.6c-4.5 0-7.7 1.4-9.8 4.4-2.6 3.7-3.7 8.2-3.1 12.7 1.1 8.3 9.5 18.3 18.6 18.8h.8c9.7 0 17-9.9 17.1-18.7.1-12.3-12.1-15.9-19.3-16.9-1.4-.1-2.8-.2-4.3-.3z"/><path d="m63.2-365.4c-4.4 3.4-8.4 7.3-11.8 11.8-3.3 4.2-5.4 9.5-9.3 13.1-2-2.2-4.3-8-8.2-5.7-3.3 1.9-1.2 5.2.4 7.4 4.1 5.6 8.7 7.8 14 2.3 4.8-5 7.5-11.7 12-17 2-2.3 5-4.6 6.6-7.2 1.4-2.3-.4-7.1-3.7-4.7"/></g><g opacity=".5" transform="translate(911.03 120.696)"><path d="m378.6-72.7c-2.2-1-2.1-2.1-1.3-3-.5-1.2-.5-3.2-.6-4.1-.5-3.9-.8-7.9-.8-11.8 0-7.8 0-15.9 2.2-23.4-.8-.2-1.3-.9-1.4-1.7 0-3.9 12-3.8 18.1-3.7h2.9c4.4-.1 8.7-.1 13.1-.1 1 0 2-.1 3.1-.1 2.2-.2 4.4-.2 6.5.2 5.6 1.3 5.2 10.9 5.3 15.5.2 8.4 0 16.9-.6 25.3-.2 2.9-2.3 6.5-4.7 2.5-1.3-2.2-.7-7.3-.7-9.8 0-8.6 1.3-17.5.1-26.1-.4-2.8-.3-3-3.2-2.9-2.3 0-4.5.1-6.8.2-4.5 0-9.1.1-13.8.3-1.8.1-8.1 1.2-13 1.2v.1c.1 3.3-1.6 7.4-1.8 10.9-.5 8.4.2 17-.6 25.4 0 .3 0 .5-.1.8h.4c3.7-.2 7.4-.1 11.1-.2 2.3-.1 4.7-.1 7.1 0 5.3.1 10.5-.1 15.7-.6 1.5-.2 2.1 1.8 1.4 2.8-.8 1.1-3.2 1.1-4.4 1.2-3.3.4-6.7.7-10 .8-3.5.2-7 .3-10.6.4-2 .1-5.8.6-8.8.6-1.3 0-2.6-.2-3.8-.7z" fill="#bdc5d1"/><path d="m446.5-73.7c0-.3.1-.7.3-.9-.7-.7-1.1-1.6-1.4-2.5-1.2-3.8-1.3-8-1.4-12-.2-8.5-.1-17.1-.1-25.6-.8-1-.3-2.2.7-3.1 2.6-2.2 10.1-1.7 13.4-1.8 4.8-.3 9.5-.3 14.3-.3 5 0 10.1.1 15.1.2 1.9.1 14.9.4 9.1 3.5-.4.2-.7.3-1.1.5.2 1.2.3 2.4.2 3.6-.2 4.5-.4 9.1-.6 13.6-.2 5.1-.4 10.1-.6 15.2-.1 2.7.8 8.9-1.3 10.8-.5.5-1.1.8-1.8.9-.5 0-1-.3-1.3-.7-3.6 1.1-10.7.9-15.2.7-1.8-.1-3.1-.2-3.7-.1-2 0-8.7.7-14.6.7-5.3 0-10-.6-10-2.7zm20.2-41.8c-5.3 0-10.5.3-15.8.9-.3 0-.6.1-1 .2.8 3.2-.2 8.6-.2 11.7 0 8.6.3 17.2.5 25.8v.8c4.1-.9 10.8-.7 15.1-.5 1.7.1 3.1.1 3.8.1 4.2 0 8.5 0 12.7.2h2.1c1.7-.1 3.3 0 5 .1 0-.2 0-.4 0-.6-.2-4.6 0-9.2.2-13.7.1-4.6.4-9.2.6-13.8.1-2.4-.5-7.3.1-10.7-3.1-.1-6.3-.4-8.4-.4-2.6 0-5.2 0-7.8 0-2.4-.2-4.7-.2-6.9-.1z" fill="#bdc5d1"/><path d="m398-72.9c-3.1 1.8-1.4 9.1-.4 11.7 1.8 4.2 5.4 7.4 9.3 9.6 7.9 4.4 19.2 3.2 25.2 10.8.1.1 2.1 2.1 2.6-.5.4-2.2-3.5-5.5-5-6.6-4.2-3.1-9.7-4.1-14.6-5.6-5.2-1.6-11-4.7-13.2-10.1-.6-2.1.8-12.1-3.9-9.3" fill="#97a4af"/><path d="m469.5-69.4c-2.9.8-1 4.7-1 6.7 0 2.5-.8 5-2.3 7-3.9 5-11.4 5.7-17 7.2-4.1 1-13.9 3.3-14.3 8.8-.4 6.2 8.2-1.3 9-1.7 8.1-3 18.6-3.5 24.8-10.1 2.6-2.7 4.1-6.3 4.3-10 .1-2.1.2-8.9-3.5-7.9" fill="#97a4af"/><g fill="#bdc5d1"><path d="m433.9 5.3c-2.8 0-5.6-.5-8.3-1.4s-5.3-2.3-7.6-4-4.1-3.8-5.6-6.2c-1.4-2.5-2.2-5.2-2.2-8.1 0-2.7.6-5.4 1.8-7.8 1.2-2.3 2.9-4.4 4.8-6.1 4.1-3.4 9-5.9 14.2-7.2 1.7-.4 3.4-.7 5.1-.7 4.8 0 9.4 1.8 12.9 5.1 3.6 3.4 5.9 7.9 6.4 12.8.7 5.7-1 11.5-4.7 15.9-1.9 2.3-4.3 4.1-7 5.4-2.8 1.4-5.9 2.1-9 2.2-.2 0-.5.1-.8.1zm-16.4-27c-2.4 4.2-2.6 8.4-.4 12.2 3.1 5.3 10.3 9 17.6 9 2.4 0 4.8-.5 7.1-1.4 7.3-3.4 9.3-11.3 8-17.3-1.1-5.2-5.1-10.7-12.9-10.8.5.6.7 1.3.7 2.1-.1.4-.4.8-.7 1s-.6.3-.9.3c-.7 0-1.2-.7-1.6-1.3-.3-.6-.8-1-1.4-1.3-.2 0-.4-.1-.5-.1-1.4 0-3.2 1.1-4.5 2.1-.7.6-1.4 1.3-2 2-1.9 2.1-4.4 4.9-6.4 4.9-.9 0-1.7-.6-2.1-1.4z"/><path d="m426-18.3c0 2.6 4.2 2.6 4.2 0-.1-2.6-4.2-2.7-4.2 0"/><path d="m433.3-18.8c0 3.2 5.1 3.2 5.1 0s-5.1-3.3-5.1 0"/><path d="m428.1-11.3c-4.2 2.5 7.7 7.3 8.2 2.3.2-2.1-1.9-1.6-3.3-1.7-1.3-.1-3.7-1.3-4.9-.6"/></g><path d="m426.3 6.1c.2 6.3.1 12.5 1.3 18.7.2 1.2.4 5.4 1.3 6.3 2.3 2.1 2.3-2 2.4-3.5.3-5.6-.3-11.4-.4-17.1 0-1.2.3-3.7-.3-4.9-.9-1.9-4.4-2.5-4.3.5" fill="#97a4af"/><path d="m421.8 1c-9.1 10.3-21.7 9.5-34.4 10.4-6.7.5-13.5 1.4-18.9 5.8-2.5 2-4.6 4.5-6.1 7.4-.6 1.3-3.6 8.5.9 6.8 1.6-.6 3.2-5.4 4.2-6.8 1.9-2.7 4.5-4.9 7.5-6.4 5.8-2.8 12.8-2.7 19.2-3.1 6.6-.4 13.7-.7 19.8-3.6 2.9-1.3 5.5-3.1 7.9-5.2.8-.8 2.6-2.1 2.7-3.3.2-1.4-1.1-3.9-2.8-2" fill="#97a4af"/><path d="m375.7 32.5c-8.6.3-17.1.6-25.7 1.2-1.8.1-7.6-.2-6.1 3.4 1.2 2.9 8.3 1 10.7.8 8.9-.5 17.9-.7 26.8-1.5 2-.2 11-.1 7.3-3.7-1.8-1.7-10.5-.3-13-.2" fill="#bdc5d1"/><path d="m338.4 36.6c-2.7 3.6-1.5 12.2-1.3 16.5.2 4.1-.6 11.7 4.8 12.3-1.7-.2 1.3.1 1.8.1 1.1.1 2.2.1 3.3.1 2.5 0 5.1 0 7.6-.1 5.7-.1 11.5-.3 17.2-.6 2.4-.1 15.5 0 16-2.5.7-3.2-11.9-1.4-14.1-1.3-5.5.3-10.9.3-16.4.4-2.7 0-5.4.1-8.1 0-1.1 0-5.6.4-6.2-.3-.6-.6-.1-6.5-.1-7.4 0-2.9 0-5.8.1-8.8.1-2 1.1-5.7.3-7.5-.7-1.5-2.5-2.2-4-1.5-.4.2-.6.4-.9.6" fill="#bdc5d1"/><path d="m382.6 36.8c.2 6.5.2 13.1 1.7 19.5.5 2.1 1.2 6.5 3.4 7.6s4.2-.5 4.3-2.7c.2-2.8-1.3-6.4-1.6-9.3-.4-3.3-.6-6.7-.7-10-.1-2.5.7-6.3-1.7-7.9-1.6-1.1-3.7-.6-4.8 1-.4.5-.6 1.1-.6 1.8" fill="#bdc5d1"/><path d="m405.6 63.1c-2-.1-4.2-.8-3.7-3.4.5-2.3 2.8-2.4 4.7-2.6 5.8-.6 11.6-.8 17.4-.8 12.2 0 24.5 0 36.7-.1.5 0 1 .2 1.4.5-.6-.8-.3-1.9-.5-3-.3-3-.5-6-1.1-9-.5-2.4-.8-6.5-3-8.1-1.9-1.3-5.6-1.2-8.6-1.2-.8 0-1.6 0-2.2 0-7.9-.1-15.8.3-23.6 1.1-3.6.3-7.2.6-10.7 1.2-2 .4-7.7 3.2-9.3 1.5-3.8-4.3 12.8-6 15.1-6.3 8-.8 16-1.4 24.1-1.5 5.4 0 14.8-.5 18.8 4 2.4 2.7 3.2 7.1 4.2 10.4.7 2.6 2.7 7.2 1.3 9.9-.6 1.2-1.6 2.2-3.2 1.8-.3-.1-.6-.2-.9-.4.6.6.8 1.6.5 2.4-.9 2.1-4.3 1.7-6.1 1.8-6.1.5-12.3.9-18.4.9-2.9 0-5.8 0-8.8 0s-6-.1-9 0c-4.5 0-9.2.9-13.6.9-.6.1-1.1.1-1.5 0z" fill="#bdc5d1"/><path d="m507.6 27.9c-1.5 0-3-2.5-4-4.2-.3-.5-.5-.9-.9-1.3-1.7-2.4-4.1-4.1-6.8-5.1-5.2-1.8-11-2.4-16.5-3.1-1.9-.2-3.9-.4-5.7-.7-1-.1-2-.3-3-.4-5-.6-10.7-1.4-15-3.8-1.9-1.1-7.8-6.5-7.9-10.1 0-1 .5-1.9 1.4-2.4.4-.3 1-.4 1.5-.5 1.4 0 2.2 1.6 2.9 2.9.2.4.4.9.7 1.2 1.6 2.6 4.2 4.5 7.2 5.2 4.6 1.2 9.2 2.1 13.9 2.7 1.2.2 2.4.4 3.7.6 1 .2 2 .3 3 .5 5.5.8 11.2 1.7 16.2 3.9 2.3 1.4 4.4 3.1 6.2 5.1 1.7 1.8 4.6 5.1 4.8 7.4.1.8-.3 1.5-1 1.8-.2.3-.5.3-.7.3z" fill="#97a4af"/><path d="m479.1 62.2c-2.1-.2-4.3-.9-3.8-3.6-1.5-2.8-2.1-8.2-2.3-9.2-.5-4.5-.7-9.1-.5-13.7 0-1.7 1.4-3 3.1-2.9.6 0 1.2.2 1.7.6 2.5-1 6.7-1.2 9-1.4 3.7-.4 7.5-.5 11.2-.7 8.7-.5 17.5-1.5 26.2-1.7 2.6-.1 6.1-.3 8.2 1.6 2.4 2.2 2.9 7.7 3.6 10.6.9 3.2 1.6 6.4 2 9.7.2 1.1.2 2.2.2 3.3 1.1.2 1.8 1.3 1.6 2.4-.2 2.1-3.2 2.4-4.9 2.8-5.8 1.1-12 .9-17.8 1-9.5.3-19.5 1.5-29.2 1.5-2.7.1-5.5 0-8.3-.3zm1.2-6.1h.8c6.2-.1 12.3-.3 18.5-.5 6.3-.2 12.6-.5 18.9-.6 2.2 0 4.4 0 6.6.1 2.9.1 5.7.2 8.5.1-1.1-2.8-.9-7.3-1.5-10.2s-.8-6.4-2-9.1c-1.3-3.1-2.5-2.4-5.9-2.1-3.5.2-7.1.6-10.6.9-7.8.6-15.5 1-23.3 1.6-4 .3-7.9 1.4-11.8 1.9-.1 1.4-.3 2.8-.2 3.8.1 3 .4 6 .6 9 .1 1.2.6 3.3.7 5.2z" fill="#bdc5d1"/></g><g transform="translate(219 794)"><path d="m11.1-59.8c21.5 0 38.9 4.9 38.9 11s-17.4 11-38.9 11-38.9-4.9-38.9-11 17.4-11 38.9-11z" fill="#bbcff2" opacity=".2"/><path d="m45.3-103.6c2.5 4.3 3.8 9.2 3.8 14.1 0 18-17.4 32.7-38.9 32.7s-38.9-14.6-38.9-32.7c0-5.2 1.5-10.4 4.3-14.9 17.2 2.8 51.5 2.6 69.7.8z" fill="url(#a)" transform="translate(2 11)"/><path d="m4.4-99.8c19.6 0 35.4 3.7 35.4 8.4 0 4.6-15.8 8.4-35.4 8.4s-35.4-3.8-35.4-8.4c0-4.7 15.9-8.4 35.4-8.4z" fill="url(#b)" transform="translate(8)"/></g><g transform="translate(225 613)"><path d="m3.5 82.3c-2-13.4-7.3-32.7-23.3-53.5-9.4-12.3-9.5-42.1-10.8-45.4 7.4 2.6 20.7 9.1 34.1 27.6 14 19.3 5.1 58.7 0 71.3z" fill="url(#d)"/><g clip-path="url(#e)"><path d="m2.9 82.3c1.5-32.5-2.6-53-15.3-72.4" opacity=".5" stroke="#489c71" stroke-miterlimit="10" stroke-width="3"/></g></g><g transform="translate(178 702)"><path d="m50.5 7c-6-9.6-16.5-22.5-35.7-33-11.3-6.2-21.3-28.9-23.5-31 6.5-.5 18.8 0 35.2 9.6 17.3 10.1 23.7 43.2 24 54.4z" fill="url(#f)"/><g clip-path="url(#g)"><path d="m50.1 7.2c-9.8-25.3-19.8-39.5-36-50.1" opacity=".5" stroke="#489c71" stroke-miterlimit="10" stroke-width="3"/></g></g><g transform="translate(293 691)"><path d="m-60.2 19.3c4.7-10.3 13.6-24.5 31.3-37.4 10.4-7.7 17.5-31.6 19.4-33.9-6.5.3-18.7 2.4-33.9 14.1-15.8 12.2-18 46-16.8 57.2z" fill="url(#h)"/><g clip-path="url(#i)"><path d="m-61.6 19.2c6.5-26.4 14.6-42 29.4-54.5" opacity=".5" stroke="#489c71" stroke-miterlimit="10" stroke-width="3"/></g></g><path clip-rule="evenodd" d="m1051.5 693.6h96.5l23.9-147.1c1.9-10.7 11.3-18.6 22.2-18.6h80.1l-32.3 195.9h-217.2c-.1-16.7 11.9-30.2 26.8-30.2" fill="#b2c1d6" fill-rule="evenodd"/><path clip-rule="evenodd" d="m1084.3 723.9h11.2 98.1v122.2h-5.1-4.8-6.4v-111h-81.8v111h-11.2v-111h-43.3v111h-5.2-4.8-6.4v-111-11.2z" fill="#d6e3f8" fill-rule="evenodd"/><path clip-rule="evenodd" d="m1117.5 693.6h97.4l23.9-147.1c1.9-10.7 11.3-18.6 22.2-18.6h17.8l-32.5 195.9h-155.6c0-16.7 12-30.2 26.8-30.2" fill="#d0d8ea" fill-rule="evenodd"/><path clip-rule="evenodd" d="m1186.9 846.1h11.2v-122.2h-11.2z" fill="#d6e3f8" fill-rule="evenodd"/><path clip-rule="evenodd" d="m1100.6 723.9h141.2l32.3-196h11.2l-32 194.2v124h-10v-111h-142.7v111h-9.9v-111-11.2z" fill="#e7eaf3" fill-rule="evenodd"/><path clip-rule="evenodd" d="m739 688.7h31.3l14.4-138c1.2-10.1 6.8-17.4 13.4-17.4h117l-20.1 183.9h-23.7-144c.1-15.8 2.3-28.5 11.7-28.5" fill="#b2c1d6" fill-rule="evenodd"/><path clip-rule="evenodd" d="m892 717.1v114.7h-10.6v-104.2h-20.4v104.2h-15.3v-104.2h-67.1v104.2h-15.4v-104.2h-20.4v104.2h-15.4v-114.7z" fill="#d6e3f8" fill-rule="evenodd"/><path clip-rule="evenodd" d="m771.6 831.8h7v-104.2h-7z" fill="#e8f0fc" fill-rule="evenodd"/><path clip-rule="evenodd" d="m735.8 831.8h7v-104.2h-7z" fill="#e8f0fc" fill-rule="evenodd"/><path clip-rule="evenodd" d="m861 717.1h28.8 7v10.5 104.2h-7v-104.2h-28.8v104.2h-6.9v-104.2-10.5z" fill="#e7eaf3" fill-rule="evenodd"/><path clip-rule="evenodd" d="m865.7 688.7h15.1l14.4-138c1.2-10.1 6.8-17.4 13.4-17.4h7.5l-19.3 182.7v1.2h-42.7c0-15.8 2.1-28.5 11.6-28.5" fill="#d0d8ea" fill-rule="evenodd"/><path clip-rule="evenodd" d="m747.1 780.9c2.5 11.5 4.4 14.1 5.9 18 7.4 19.5-23.9 27.4-27.9 4.1-3.2-18-5-17-7.2-21.8-7.9-17.6 23-28.6 29.2-.3" fill="#e0b78d" fill-rule="evenodd"/><path clip-rule="evenodd" d="m753.2 795c4.2 1.2 4.3 18.5 4.3 33.3 0 1.9-1.6 3.5-3.5 3.5h-65.5c-2.1 0-3.7-1.8-3.5-3.9.5-4.4 2.5-11.3 9.6-14.5 10.8-4.8 18-9.8 21.2-16.5 3.4-7.1 15.5-5.9 17.9-.6 4.3-2.8 6.3 1.7 11.5 1.7 5.1-.1 5.2-3.7 8-3" fill="#1d68d6" fill-rule="evenodd"/><path d="m756.7 804.5c-6.6 5.1-21 1.8-24.2-1.1-10.2 12-24.1 16.1-24.1 16.1s1.8 2.3 2.4 6.7" fill="none" opacity=".5" stroke="#1e2022" stroke-linecap="round" stroke-linejoin="round"/><path d="m703.1 833c-3.9-5.8-8.4-8.2-10-8.7" fill="none" opacity=".5" stroke="#1e2022" stroke-linecap="round" stroke-linejoin="round"/><path d="m685.3 826.3h72.2" fill="none" opacity=".5" stroke="#1e2022" stroke-linecap="round" stroke-linejoin="round"/><path clip-rule="evenodd" d="m761.8 617.1.3 10.1-73.4-.2c-14.9.1-26.3 13.9-24.2 29.2 0 .1 0 .2.1.4.2 2.5.9 5 1.9 7.5l49.5 125.6 38.7-.8c-9.2-37.4-17.6-75.1-27-106.1l54.9 6 51.3.1c21.6 1.6 41.7-11.4 43.6-33.8l.7-38z" fill="#1e2022" fill-rule="evenodd"/><path d="m727.7 682.8-17.7-19" fill="none" stroke="#f3edf7" stroke-linecap="round"/><path clip-rule="evenodd" d="m892.6 495.1c-7.4-3.1-18.5-7.2-33.7-10.3-4.1-8.5-19.2-14.8-37.1-14.8-18.4 0-33.8 6.6-37.4 15.5-14 3.4-23.8 7.7-30.5 10.5-1.9.8-3 2.9-2.6 4.9 9.5 48.9 10.9 126.3 10.9 126.3 6.4 4.4 11.9 6.4 16.7 6.9 4.9-6.3 12.7-10.2 21.2-9.7v-.1l21.6 2c12.7 1.2 25.1 5.2 36 11.7 6.3 3.7 11.9 7.5 16.4 9.8 3.9 2 8.5-.8 8.6-5.1v-.1c.6-31.9 5.3-90.7 14.5-139.2.6-3.4-1.3-6.9-4.6-8.3" fill="#377dff" fill-rule="evenodd"/><path clip-rule="evenodd" d="m734.8 607.1c11.5 3.2 23.3-3.5 26.5-14.9l22.4-70.5c3.2-11.6-3.5-23.6-15.1-26.8s-23.6 3.5-26.8 15.1l-22 70.6c-3.1 11.4 3.6 23.3 15 26.5" fill="#377dff" fill-rule="evenodd"/><path d="m756.9 521.6 2.5 52.5" fill="none" stroke="#1e2022" stroke-linecap="round" stroke-linejoin="round"/><path clip-rule="evenodd" d="m824.6 504c-10.9 1.7-21.1-5.4-22.7-15.6l-2.8-38.3 35.4-6.1 6.1 38.4c1.6 10.1-5.1 19.9-16 21.6" fill="#e0b78d" fill-rule="evenodd"/><path clip-rule="evenodd" d="m834.3 441.6-35.4 6.1 2.4 33.1c18.2 0 29.3-16 34.2-30.7z" fill="#a37569" fill-rule="evenodd"/><path clip-rule="evenodd" d="m842.1 422.9c0-16.5-12.5-27.8-28-27.8s-29.2 11.1-28 27.8c1.2 16.5 20.2 45.6 35.7 45.6 8.4-6.4 20.3-23.2 20.3-45.6" fill="#1e2022" fill-rule="evenodd"/><path clip-rule="evenodd" d="m786.1 425.9 1.8 26.9c.8 11.7 10.9 20.6 22.7 19.8 9.3-.6 16.8-7.1 19.1-15.6l7.1-26c3.8-13.8-4.3-28-18.1-31.8s-28 4.3-31.8 18.1c-.7 2.8-1 5.8-.8 8.6" fill="#e0b78d" fill-rule="evenodd"/><path clip-rule="evenodd" d="m796.5 432.3c-.8-.2-1.5-.3-2.3-.4-.7-.1-1.5-.2-2.2-.2s-1.4-.1-2.1.1c-.3.1-.7.2-1 .3s-.6.3-.7.4c-.4.3-.9.3-1.2-.1-.2-.2-.2-.5-.2-.8l.2-.8c.3-1.3 1.1-2.1 1.9-2.6.4-.3.9-.4 1.4-.6.5-.1.9-.3 1.4-.3.9-.1 1.8-.2 2.6-.1s1.6.2 2.4.5l1 .4c1.1.4 1.7 1.7 1.3 2.8-.4 1-1.5 1.6-2.5 1.4" fill="#1e2022" fill-rule="evenodd"/><path clip-rule="evenodd" d="m811.8 427.7c.9-.3 1.9-.5 2.8-.5 1-.1 1.9-.1 2.9 0 .5 0 1 .1 1.5.2s1.1.2 1.7.4c1.1.5 2 1.3 2.5 2.8l.2.8c.1.5-.1 1-.6 1.1-.3.1-.6 0-.8-.2-.2-.1-.6-.4-.9-.5-.4-.1-.8-.2-1.2-.3-.7-.1-1.6 0-2.5 0-.9.1-1.8.2-2.7.3s-1.8.3-2.7.5c-1.2.2-2.4-.6-2.6-1.8-.2-1.1.5-2.2 1.5-2.5z" fill="#1e2022" fill-rule="evenodd"/><path clip-rule="evenodd" d="m815.9 435c0 1.1-.9 2-2 2s-2-.9-2-2 .9-2 2-2 2 .9 2 2" fill="#1e2022" fill-rule="evenodd"/><path clip-rule="evenodd" d="m794.8 434.9c0 1.1-.9 2-2 2s-2-.9-2-2 .9-2 2-2c1.1-.1 2 .8 2 2" fill="#1e2022" fill-rule="evenodd"/><path clip-rule="evenodd" d="m831.6 407.4c-2-2.4-4.5-4.4-7.3-6 0 0-.1 0-.1-.1-1.1-.6-2.2-1.1-3.3-1.5-.1 0-.2-.1-.4-.1-.6-.2-1.1-.4-1.7-.5-.5-.1-1-.3-1.5-.4-.2 0-.3-.1-.5-.1-.4-.1-.7-.1-1.1-.2-.2 0-.3 0-.5-.1-.4-.1-.8-.1-1.2-.1-.1 0-.2 0-.3 0-.5 0-1-.1-1.6-.1h-.1c-.5 0-1 0-1.4 0-.1 0-.2 0-.2 0-.5 0-1 .1-1.4.1h-.1c-5.3.6-10.3 2.9-14.3 6.5-1.1 1-3.9 3.2-4.8 4.3 3 2.2 6.5 3 14.2 3.7 5.5.6 14.7.5 19.7-1.1 5.2 7-.1 15.2 5.7 19.4-2.7 14.8-10.1 18.8-24.7 18.8-10.1 0-15.4-3.3-17.7-10.8l.9 13.5c.2 3.7 1.4 7.1 3.2 10 .7 1.2 1.6 2.2 2.5 3.2 2.3 2.5 5.3 4.4 8.5 5.5 2 .7 4 1.1 6.2 1.1h2.2c.6 0 1.2-.1 1.7-.2.6-.1 1.1-.2 1.7-.3 1.6-.4 3.2-1 4.7-1.7.5-.2 1-.5 1.4-.8 1.9-1.1 3.5-2.5 5-4.1.7-.8 1.4-1.7 2-2.6 1.2-1.8 2.1-3.8 2.7-5.9l4-14.6 3.1-11.5c2.4-8.3.1-17-5.2-23.3" fill="#1e2022" fill-rule="evenodd"/><path clip-rule="evenodd" d="m833.9 444.8c.1 2.1 2.2 3.4 4.2 2.7 4.2-1.5 6.8-5 6.6-8.9-.3-5-3.6-8.9-7.5-8.6s-3.3 14.8-3.3 14.8" fill="#e0b78d" fill-rule="evenodd"/><path clip-rule="evenodd" d="m805.4 454.8c-4.5 0-10.1-1.8-10.1 2.4 0 1.8.8 3.5 2.3 4.8 2.3 2.1 6.1.5 6.2-2.6v-.1h1.7 1.7v.1c0 3.1 3.9 4.7 6.2 2.6 1.4-1.3 2.3-3 2.3-4.8-.2-4.3-5.8-2.4-10.3-2.4" fill="#e0b78d" fill-rule="evenodd"/><path d="m797.5 456.1c5.1 1.9 10.6 1.9 15.7 0" fill="none" stroke="#1e2022" stroke-linecap="round" stroke-linejoin="round"/><path d="m800.1 448.1c2.7 1.2 5.5 1.2 8.2 0" fill="none" stroke="#a37569" stroke-linecap="round" stroke-linejoin="round"/><path clip-rule="evenodd" d="m898 607.1c-11.7 2.1-22.9-5.7-25-17.4l-11.7-71.4c-2.1-11.8 5.8-23.1 17.6-25.2s23.1 5.8 25.2 17.6l11.3 71.4c2.2 11.7-5.6 22.9-17.4 25" fill="#377dff" fill-rule="evenodd"/><path d="m871.1 577.3-9.2-55.6" fill="none" stroke="#1e2022" stroke-linecap="round" stroke-linejoin="round"/><path clip-rule="evenodd" d="m842.1 584.2 46.3-15.4c10.6-2 20.9 4.9 22.9 15.6 2 10.6-4.9 20.9-15.6 22.9l-50.3-.1c-9.5.7-14.4-4.3-13.2-10.3 1.2-6.1 5.2-11.3 9.9-12.7" fill="#e0b78d" fill-rule="evenodd"/><path d="m784.2 486.1c-2.8 11.2 12.2 17 12.2 17" fill="none" stroke="#1e2022" stroke-linecap="round" stroke-linejoin="round"/><path d="m858.7 485c2.8 11.2-12.2 17-12.2 17" fill="none" stroke="#1e2022" stroke-linecap="round" stroke-linejoin="round"/><path clip-rule="evenodd" d="m845.5 601.9-22.5-6.8-30-7.7-47.1-18.6c-10.6-2-20.9 4.9-22.9 15.6-2 10.6 4.9 20.9 15.6 22.9l50.2-.1c.5.1.9.1 1.4.1h54.6c1.4 0 2.6-1.1 2.7-2.5s-.7-2.6-2-2.9" fill="#e0b78d" fill-rule="evenodd"/><path clip-rule="evenodd" d="m845.5 601.9-22.5-6.8-22.1-5.7-30.9 17.8h18.7c.5.1.9.1 1.4.1h54.6c1.4 0 2.6-1.1 2.7-2.5.2-1.4-.6-2.6-1.9-2.9" fill="#a0614b" fill-rule="evenodd"/><path d="m856.9 599.9c-1.7 3.9-5.6 6.7-10.1 6.7" fill="none" stroke="#a0614b" stroke-linecap="round"/><path clip-rule="evenodd" d="m848.4 584.7-28.2-3.9c-1.4-.2-2.7 0-3.9.5-.5.1-.9.3-1.4.5l-2.4 1.7c-.7-.1-1.4 0-2.1.3l-12.7 5.7c-.3.1-.7.2-1 .4-.5.2-.9.6-1.3 1-.2.2-.3.3-.5.5l-8.1 10.5c-.9 1.6-1.7 2.7-.5 3.9.8.8 3.3 1.7 6.2-.6.1.2.2.4.4.6.8.8 3.4 1.7 6.3-.6.8-.6 1.9-1.6 3.1-2.6l-.1.2c-.5 1.6-1.1 2.7.2 3.6.9.6 3.4 1 5.6-1.6 1.1-1.3 2.9-3.6 4.5-5.7l-1.2 4.3c-.2 1.6-.5 2.7.9 3.2.7.3 2.5.3 3.9-1.3.3-.3 2.8-3 3.5-4.4 6.1 3.1 12.3 5.8 15.5 5.8h11.7c6.1 0 11-4.9 11-11 0-5.6-4-10.2-9.4-11" fill="#e0b78d" fill-rule="evenodd"/><path d="m827.3 599.3-5.5-1-2.7 4.6" fill="none" stroke="#a0614b" stroke-linecap="round"/><path d="m792.3 603.3 7.6-11.5 10.1-6.6" fill="none" stroke="#a0614b" stroke-linecap="round"/><path d="m800.6 605.2 8.2-15.5 10.3-4.5" fill="none" stroke="#a0614b" stroke-linecap="round"/><path d="m810.5 604.1 4-11.7c.7-1.9 2.5-3.1 4.5-3l7.7.4" fill="none" stroke="#a0614b" stroke-linecap="round"/><path clip-rule="evenodd" d="m804.5 774.4c-1.1 11.8-1.5 24.3-1.9 28.4-1.4 15.2-29.7 10.9-27.3-7.3 1.5-11.4.6-21.2 1-26.5 1.1-15.3 30.4-18.2 28.2 5.4" fill="#e0b78d" fill-rule="evenodd"/><path clip-rule="evenodd" d="m809.2 788.5c7.9-48.9 14.6-105.9 14.5-139.2 0-12.4-9.3-23-21.6-24.7-14.9-2.1-28.3 9.3-28.6 24.4l-2.9 139.5z" fill="#1e2022" fill-rule="evenodd"/><path d="m821.8 689.5 1.3-18.3" fill="none" stroke="#f3edf7" stroke-linecap="round"/><path d="m778.8 634.1c-3.2 4.1-5.1 9.2-5.3 14.9l-.8 38.7" fill="none" stroke="#f3edf7" stroke-linecap="round"/><path clip-rule="evenodd" d="m805 795c4.4 1.3 4.3 20.1 4.3 35.2 0 .9-.7 1.6-1.6 1.6h-54.7c-.8 0-1.5-.6-1.6-1.5-.3-3.2 0-10.9 6.9-16.9 5.7-5 6.1-9.8 9.3-16.5 3.4-7.1 18.9-4.3 21.3 1 4.3-2.8 4.7.2 9.8.2 5.2 0 3.6-3.8 6.3-3.1" fill="#377dff" fill-rule="evenodd"/><path d="m808.6 804.5c-4.5 5.1-15 2.8-17.2 0-7 12-10.9 15-10.9 15s1.9 3 2.4 6.7" fill="none" opacity=".5" stroke="#1e2022" stroke-linecap="round" stroke-linejoin="round"/><path d="m809.4 826.3h-58" fill="none" opacity=".5" stroke="#1e2022" stroke-linecap="round" stroke-linejoin="round"/><path d="m757.5 814.2c7.5-5.4 19.4-.6 22.9 5.3" fill="none" opacity=".5" stroke="#1e2022" stroke-linecap="round" stroke-linejoin="round"/><g clip-rule="evenodd" fill-rule="evenodd"><path d="m509.2 690.5h-31.6l-14.6-139.4c-1.2-10.2-6.9-17.6-13.5-17.6h-118.3l20.3 185.8h24 145.4c0-15.9-2.2-28.8-11.7-28.8" fill="#b2c1d6"/><path d="m354.7 719.2v115.9h10.6v-105.2h20.6v105.2h15.5v-105.2h67.8v105.2h15.5v-105.2h20.7v105.2h15.5v-115.9z" fill="#d6e3f8"/><path d="m469.2 835.1h7.1v-105.2h-7.1z" fill="#e8f0fc"/><path d="m505.4 835.1h7v-105.2h-7z" fill="#e8f0fc"/><path d="m385.9 719.2h-29.1-7v10.7 105.2h7v-105.2h29.1v105.2h7.1v-105.2-10.7z" fill="#e7eaf3"/><path d="m381.3 690.5h-15.3l-14.6-139.4c-1.2-10.2-6.9-17.6-13.5-17.6h-7.6l19.5 184.5v1.2h43.2c0-15.8-2.2-28.7-11.7-28.7" fill="#d0d8ea"/><path d="m556.9 516.1c-5.8-4.7-14.4-3.8-19.1 2l-28.3 36.7-22.5-53.2c-4.4-9.6-15.7-13.7-25.3-9.3s-13.8 15.7-9.4 25.3l36.9 76 .5 1.1c1.5 3.3 3.9 6.1 7.2 8.1 8.8 5.3 20.2 2.6 25.5-6.2l37.8-67c3.6-5.6 2.1-9.2-3.3-13.5" fill="#ffc9ae"/><path d="m504.3 542.4-17.3-40.8c-4.4-9.6-15.7-13.7-25.3-9.3s-13.8 15.7-9.4 25.3l24.8 51z" fill="#fb9b73"/><path d="m506.4 537.9-18.2-36c-4.7-10.3-16.9-14.8-27.2-10-10.3 4.7-14.8 17-10.1 27.3l17.9 39z" fill="url(#k)"/><path d="m506.4 537.9-18.2-36c-4.7-10.3-16.9-14.8-27.2-10-10.3 4.7-14.8 17-10.1 27.3l17.9 39z" fill="url(#m)"/><path d="m410 593.6c-1.4-6-6.7-7.6-12.5-8l-44-4.6 25.4-65.2c2.1-9.2-2.8-18.8-11.9-22.2-9.9-3.7-20.9 1.3-24.6 11.2l-25.9 81.1c-1 2.3-1.4 4.7-1.4 7.1-.2 5.5 4.6 14.6 15.2 14.6 19.4 0 64.2-4.9 64.2-4.9 7.4-1.7 17.2-1.8 15.5-9.1" fill="#ffc9ae"/><path d="m358.2 568.9 21.2-57.6c0-9.5-7.1-17.7-16.8-18.9-10.5-1.3-20 6.1-21.4 16.6l-13.4 40.9z" fill="#fb9b73"/><path d="m369.5 559c1.9-6.3 3.7-12.6 5.5-19 2.1-7.8 4.3-15.6 6.1-23.6 2.4-10.3-3.2-21-13.3-24.8-11-4.1-23.3 1.5-27.4 12.5-2.8 7.6-5.4 15.3-7.9 23-2.1 6.5-4.1 13.1-6.1 19.7z" fill="url(#n)"/><path d="m369.5 559c1.9-6.3 3.7-12.6 5.5-19 2.1-7.8 4.3-15.6 6.1-23.6 2.4-10.3-3.2-21-13.3-24.8-11-4.1-23.3 1.5-27.4 12.5-2.8 7.6-5.4 15.3-7.9 23-2.1 6.5-4.1 13.1-6.1 19.7z" fill="url(#o)"/><path d="m477.6 805.1c1.6-7.5.3-15 10.8-28.6 19-22.2-17.4-36.4-24.9-16.1 0 0-2.7 20-21.3 41.9-8.6 17.4 24 32.4 35.4 2.8" fill="#ffc9ae"/><path d="m568.1 645.1c-1.2-13.4-13.8-23.4-28.7-22.8l-152.7 8-.6 12.7c-.6 13.9 9.2 38.6 22.1 47.4h72.2l11.3-3.3c-17.5 33.3-31.8 70.6-36.4 85.6l27.5 18.6s83.7-136.3 84.2-137.5c.6-1.6 1-3.1 1.1-4.7.1-1.5.1-2.7 0-4" fill="#d0daef"/></g><path d="m497.9 681 32-31.2" fill="none" stroke="#1e2022" stroke-linecap="round" stroke-linejoin="round"/><path clip-rule="evenodd" d="m460.7 754.3c-2.2 6.5-4.1 12.2-5.5 16.9-.2.7.1 1.4.6 1.8l26.2 17.7c.8.5 1.8.3 2.3-.5l8.9-14.5c.4-.7.2-1.7-.5-2.2l-29.6-20c-.9-.6-2.1-.2-2.4.8" fill="#b6c2d8" fill-rule="evenodd"/><path clip-rule="evenodd" d="m499.2 831.8c-1.1-6.7-4.9-11.9-9.8-16.4-5.9-5.4-8.8-10.9-8.5-17.2 0-.4-.3-.8-.4-1.1-14.2-9.7-18.7 2.3-28.4 4.7-4.8 1.2-7-1-9.3-2-3.3 5.8-10.4 19.3-10.5 27.3v4.6s1.3 3 2.9 3l61.2.5c1.7 0 3.1-1.6 2.8-3.4" fill="#fff" fill-rule="evenodd"/><path clip-rule="evenodd" d="m462.2 827.1c4.5-8.8 17.9-14.2 27.2-11.7 4.9 4.5 8.7 9.7 9.8 16.4.3 1.8-1.1 3.4-2.9 3.4l-61.2-.5c-1.6 0-2.9-1.3-2.9-3 0-1.6 0-3.1 0-4.6z" fill="#dce5f4" fill-rule="evenodd"/><path clip-rule="evenodd" d="m564.3 800.5c-7.3-7.2-10-13.2-14.6-29.7-7.8-20.2-37.3-8.8-27.8 10.3 0 0 9.5 19.4 11.9 31.5 0 .1-.4 2.2-.4 2.3-3.7 19.7 47.5 4.8 30.9-14.4" fill="#ffc9ae" fill-rule="evenodd"/><path clip-rule="evenodd" d="m608.3 831.8c-.4-3.3-2.2-6.8-9.1-9.8-1.6-.7-3.3-1.5-5.1-2.3-11.7-5.7-26.8-14.8-32.5-22-9.9 13-23.2 10.4-30.7 6.5-2.6 8-3 17.2-2.8 23.4 0 1.9.1 3.6.2 4.8.1 1.5 1.4 2.7 2.9 2.7h74.1c1.9 0 3.3-1.5 3-3.3" fill="#fff" fill-rule="evenodd"/><path clip-rule="evenodd" d="m608.3 831.8c-.4-3.3-2.2-6.8-9.1-9.8-1.6-.7-3.3-1.5-5.1-2.3l-5.1 7.9h-61c0 1.9.1 3.6.2 4.8.1 1.5 1.4 2.7 2.9 2.7h74.1c2 0 3.4-1.5 3.1-3.3" fill="#dce5f4" fill-rule="evenodd"/><path clip-rule="evenodd" d="m553.8 781.2-43.4-141.1c-.9-3-2.2-5.8-3.9-8.2l-.1-.1c-4-6-11.1-9.2-18.2-8.7l-124.6 9.8.3 12.7c.4 13.9 6.7 27.2 17.6 35.7 9.8 7.6 22.1 10.9 34.3 8.2l58.8-13.2c5.8 41.8 35 93.1 47 113.1z" fill="#dce5f4" fill-rule="evenodd"/><path clip-rule="evenodd" d="m511.5 773.2c3.4 6 6.4 11.2 9 15.3.4.6 1.1.9 1.8.7l30.6-7.8c.9-.2 1.4-1.1 1.1-2l-4.9-16.3c-.2-.8-1.1-1.3-1.9-1.1l-34.6 8.8c-1.1.3-1.6 1.5-1.1 2.4" fill="#c1cde0" fill-rule="evenodd"/><path d="m474.6 676.3 2.6-15.1" fill="none" stroke="#1e2022" stroke-linecap="round" stroke-linejoin="round"/><path clip-rule="evenodd" d="m475.9 490.9c-41.9-16.8-81.8-16-124.4 1.7 0 0 12.2 78.5 12.2 98.1 0 10.4-.1 26.1-.2 38.7-.1 3.9-.4 13 .1 22 19.3 5 26.7-21.6 54.4-22.7l55-4.3c-.7-11.8-1.5-24.2-1.5-33.7 0-16.6 6.3-75.1 9-92.9.4-3.1-1.7-5.7-4.6-6.9" fill="#fff" fill-rule="evenodd"/><path clip-rule="evenodd" d="m475.9 490.9c-41.9-16.8-81.8-16-124.4 1.7 0 0 12.2 78.5 12.2 98.1 0 10.4-.1 26.1-.2 38.7-.1 3.9-.4 13 .1 22 19.3 5 26.7-21.6 54.4-22.7l55-4.3c-.7-11.8-1.5-24.2-1.5-33.7 0-16.6 6.3-75.1 9-92.9.4-3.1-1.7-5.7-4.6-6.9" fill="url(#p)" fill-rule="evenodd"/><path clip-rule="evenodd" d="m601.4 540c1.7-.9 1.2-3.8-2.7-6.1-4.7-2.9-8.1-4.7-20.4-9.8.7.1 1.3.1 1.9.2 4.4.5 2.7-6.6-4.4-8.3-5.6-1.3-14.5-3.4-14.5-3.4-6.5-3-14.7-5.4-23.5 5.5-.2.2-.3.4-.4.6-5.5 7.1 3.7 13.9 10.2 17 2.6 1.2 4.9 2.2 7.1 3 2.1.7 16.2 5.3 16.2 5.3.7.2 1.5.4 2.2.6 2.8.5 10.2 1.9 14.2 2.3.9.1 1.7-.1 2.3-.5 1.6.5 3 .9 3.9 1.2 2.1.6 3.2-.6 3.1-2.3 1 .3 1.8.5 2.5.7 4.2 1 5.5-3.1 2.3-6" fill="#ffc9ae" fill-rule="evenodd"/><path d="m562.9 517.2c5.1 4.5 8 5.5 13 7.6" fill="none" stroke="#fb9b73" stroke-linecap="round"/><path d="m575.1 526.5s-2.7 8.9-5.3 11.9" fill="none" stroke="#fb9b73" stroke-linecap="round"/><path d="m594.7 537.9c-6.7-3.6-20-10-20-10" fill="none" stroke="#fb9b73" stroke-linecap="round"/><path d="m590.3 541.1-17.1-8.4" fill="none" stroke="#fb9b73" stroke-linecap="round"/><path d="m585.4 541.5c-4.7-1.1-12.2-3.7-14.6-5.1" fill="none" stroke="#fb9b73" stroke-linecap="round"/><path d="m510.6 553.4-12.7 16.6" fill="none" stroke="#fb9b73" stroke-linecap="round"/><path d="m360 548.6-4.4-32" fill="none" stroke="#1e2022" stroke-linecap="round" stroke-linejoin="round"/><path d="m474.1 549.1 3.2-31.8" fill="none" stroke="#1e2022" stroke-linecap="round" stroke-linejoin="round"/><path clip-rule="evenodd" d="m444 444.3c0 2.1 1.7 3.6 3.5 3 3.7-1.3 6.2-4.6 6.2-8.6 0-5-2.7-9.1-6.1-9.2-3.4.1-3.6 14.8-3.6 14.8" fill="#fb9b73" fill-rule="evenodd"/><path clip-rule="evenodd" d="m396 419c0-15.9 12.9-28.8 28.8-28.8s28.8 12.9 28.8 28.8-12.9 28.8-28.8 28.8-28.8-12.9-28.8-28.8" fill="#fd9e28" fill-rule="evenodd"/><path clip-rule="evenodd" d="m413.4 501.5c11 1.8 21.4-5.2 23.1-15.6l3.8-38.6-36.9-6.8-6 38.9c-1.7 10.4 5 20.3 16 22.1" fill="#ffc9ae" fill-rule="evenodd"/><path clip-rule="evenodd" d="m404.8 440.6 35.5 6.8-2.6 26.5c-4.1 2-8.8 2.7-13.6 1.8-9.3-1.9-17.1-12.3-18.4-21.4l-1-13z" fill="#fb9b73" fill-rule="evenodd"/><path clip-rule="evenodd" d="m450.1 433.9s.8-11.4-2-23.5c-6.1-1.2-11.7 1.6-21.2 3.1-7.8 1.3-18.2-.5-20.8-3.6 2.2 13.8-.6 26.9-.6 26.9-1.6-.1-2.9 1.4-2.5 3l3.2 13.4c2.2 9 10.1 16 20 16.5 11.5.5 21.2-8.4 22.4-19.9z" fill="#ffc9ae" fill-rule="evenodd"/><path clip-rule="evenodd" d="m430.6 453.2c3.2 0 6.3-.6 9.1-1.7-1.7 3.3-5.1 5.6-9.1 5.6s-7.4-2.3-9.1-5.6c2.8 1.1 5.9 1.7 9.1 1.7" fill-rule="evenodd"/><path clip-rule="evenodd" d="m423.6 452.2c2.2.6 4.6 1 7 1s4.8-.4 7-1c-1.8 1.7-4.3 2.8-7 2.8-2.7.1-5.2-1-7-2.8" fill="#fff" fill-rule="evenodd"/><path clip-rule="evenodd" d="m404.8 444.3c0 2.1-1.7 3.6-3.5 3-3.7-1.3-6.2-4.6-6.2-8.6 0-5 2.7-9.1 6.1-9.2 3.3.1 3.6 14.8 3.6 14.8" fill="#ffc9ae" fill-rule="evenodd"/><path clip-rule="evenodd" d="m419.6 434.8c0 1.1.9 2 2 2s2-.9 2-2-.9-2-2-2c-1.1-.1-2 .8-2 2" fill="#111" fill-rule="evenodd"/><path clip-rule="evenodd" d="m439.9 434.6c0 1.1.9 2 2 2s2-.9 2-2-.9-2-2-2-2 .9-2 2" fill="#111" fill-rule="evenodd"/><path d="m435.1 445.1c-3.5 1.1-5.4.6-7.7 0" fill="none" stroke="#fb9b73" stroke-linecap="round" stroke-linejoin="round"/><path clip-rule="evenodd" d="m438.4 426.1c.9-.2 1.9-.3 2.8-.3s1.9.1 2.8.3 1.8.5 2.7.8c.9.4 1.7 1 2.2 2.2l.2.5c.2.3 0 .7-.3.9-.2.1-.4.1-.6 0-.6-.4-1.5-.6-2.3-.8s-1.6-.3-2.4-.3-1.6-.1-2.5 0c-.8 0-1.6.1-2.4.2-.9.1-1.8-.5-1.9-1.5-.1-.9.5-1.7 1.3-1.9z" fill="#fd9e28" fill-rule="evenodd"/><path clip-rule="evenodd" d="m413.5 429.1c.6-1.1 1.4-1.7 2.3-2.1s1.9-.7 2.8-.8c1-.2 1.9-.3 2.9-.3s2 .1 2.9.3l.4.1c.9.2 1.5 1.1 1.3 2s-1 1.5-1.9 1.4c-.8-.1-1.7-.2-2.6-.2s-1.7 0-2.6.1-1.7.2-2.6.3c-.8.2-1.7.4-2.4.8-.3.2-.7 0-.9-.3-.1-.2-.1-.4 0-.6z" fill="#fd9e28" fill-rule="evenodd"/><path clip-rule="evenodd" d="m502.9 608.8c3.4.5 6.5.6 8.6.5 2-.1 4-.7 5.6-1.9.1 0 .1-.1.2-.1 7.5-5.3 5-17-4-18.8-3.9-.8-8-1.5-11.6-2-7.1-1.1-17.3-2.2-16.9 5.8.4 6.3 7.7 14.9 18.1 16.5" fill="#ffc9ae" fill-rule="evenodd"/><path clip-rule="evenodd" d="m410 593.6c-1.4-6-6.7-7.6-12.5-8l-44-4.6-17.5 26.5c21.3-.7 58.6-4.8 58.6-4.8 7.3-1.7 17.1-1.8 15.4-9.1" fill="#ffc9ae" fill-rule="evenodd"/><path clip-rule="evenodd" d="m522.7 526.7h-106.6c-1.2 0-2.4 1-2.5 2.3l-9.7 75.8h-52.5v1.2c0 1.2 1 2.3 2.3 2.3h52 6.3 100.3c1.2 0 2.4-1 2.5-2.3l9.8-76.9c.2-1.4-.7-2.4-1.9-2.4" fill="#bad0f7" fill-rule="evenodd"/><path clip-rule="evenodd" d="m525.9 526.7h-106.6c-1.2 0-2.4 1-2.5 2.3l-9.8 76.9c-.2 1.2.7 2.3 2 2.3h106.6c1.2 0 2.4-1 2.5-2.3l9.8-76.9c.1-1.3-.8-2.3-2-2.3" fill="#fff" fill-rule="evenodd"/><path d="m478.4 567.4c1.2-6.1-2.8-11-8.9-11s-12 4.9-13.2 11 2.8 11 8.9 11 12-4.9 13.2-11z" fill="none" stroke="#1e2022" stroke-linecap="round" stroke-linejoin="round"/><path clip-rule="evenodd" d="m959 617-36.9 229.1h15.1l37.7-229.1z" fill="#bad0f7" fill-rule="evenodd"/><path clip-rule="evenodd" d="m947.4 817.5c-7 7.3-17.4 12.9-25 16.6-9.3 4.5-7.7 12.1-7.7 12.1h68.6c3.6-14.4-1.3-19.3.5-35.3 1.8-20.9-26.4-24-31.5-1.6 0-.1 0 3.1-4.9 8.2" fill="#1e2022" fill-rule="evenodd"/><path clip-rule="evenodd" d="m1139.7 660.1c.7-20.4-16.4-37-36.8-35.6l-85 5.9c-15.9 1-29.2 12.4-32.7 27.9l-34.6 153.3h62.1l36-118.3h56.6c18.5 0 33.7-14.7 34.4-33.2" fill="#d32f62" fill-rule="evenodd"/><path clip-rule="evenodd" d="m989 817.5c-5.8 8.3-17.4 12.9-25 16.6-9.3 4.5-7.7 12.1-7.7 12.1h68.6c3.6-14.4-1.3-19.3.5-35.3 3.8-19.4-22.1-29.1-31.5-1.6 0-.1.9 0-4.9 8.2" fill="#1e2022" fill-rule="evenodd"/><path d="m987.4 818.7c-5.8 8.3-17.4 12.9-25 16.6-9.3 4.5-7.7 12.1-7.7 12.1" fill="none" stroke="#f3edf7" stroke-linecap="round"/><path clip-rule="evenodd" d="m1161.9 489.1c-5.4 11.9-.1 26 11.9 31.4s26 .1 31.4-11.9.1-26-11.9-31.4l-21.6-9.7z" fill="#111" fill-rule="evenodd"/><path clip-rule="evenodd" d="m1151.7 538.7-26.1 57.7-.6 1.3c-2.4 5.5-7.8 8.7-13.5 8.7l-67.4-.9c-6.6-.1-11.9-5.5-11.8-12.1.1-6.1 4.8-11.1 10.7-11.7l67.1-7-14 9.9 22.2-60.1c3.4-9.2 12.8-13 21.8-10 9.3 3.1 15.4 14.1 12 23.3-.1.2-.2.6-.4.9" fill="#e7eaf3" fill-rule="evenodd"/><path clip-rule="evenodd" d="m1163.6 600.1c-16.3 0-30.8 9.8-40 23.1l-64.1 4.4c-15.9 1-29.3 12.5-32.7 28l-34.7 155.9h57.3l35.9-118 76.9.4h1.4c27.9 0 50.5-13.3 50.5-39.2s-22.6-54.6-50.5-54.6" fill="#ed4c78" fill-rule="evenodd"/><path clip-rule="evenodd" d="m1191.7 514.3c8.8 1.8 13.6 8.2 13.6 18.3 0 29.3-4.5 59-12 79.2-3.7 9.8-55.7 6.5-59.3 0-15.2-27.2-16.5-60.5-14.2-86.9.5-5.7 4.5-9.8 10.6-11.1 22.7-4.9 35-5 61.3.5" fill="#fff" fill-rule="evenodd"/><path clip-rule="evenodd" d="m1194.9 542.9c.1-.3 2.2-22.1-7.4-24.2s-19.1 4-21.2 13.6l-12.1 55.7-27 8.9c1.9 5.1 4.1 10.1 6.8 14.8 2.5 4.6 28.9 7.6 45.7 5.5z" fill="#e7eaf3" fill-rule="evenodd"/><path d="m1085.3 693.5-11.1-15.3" fill="none" stroke="#1e2022" stroke-linecap="round" stroke-linejoin="round"/><path d="m1057.5 784.8h-100.2" fill="none" stroke="#1e2022" stroke-linecap="round" stroke-linejoin="round"/><path clip-rule="evenodd" d="m1154.6 527.9c10.7 0 19.2-7.8 18.5-16.9l-4-25.2-29.5 1.8 1.6 24.1c.5 9.1 2.6 16.2 13.4 16.2" fill="#e7eaf3" fill-rule="evenodd"/><path d="m1148.2 510.1.7 16.7c-12.9 19-13.4 56.6-2.9 89.3" fill="none" stroke="#ed4c78" stroke-linecap="round" stroke-linejoin="round"/><path clip-rule="evenodd" d="m1152.4 510.2c7.2 0 18.6-7.7 17.9-15.6l-1.4-17.6-30.2 2.5 1.4 17.6c.7 7.9 3.2 13.1 12.3 13.1" fill="#feb991" fill-rule="evenodd"/><path clip-rule="evenodd" d="m1151.5 504.8c8.9-1.4 15.3-17.7 14.7-25.6l1.8-7.6-30.2 2.5 1.4 17.6c.7 7.9 3.3 14.5 12.3 13.1" fill="#fb9b73" fill-rule="evenodd"/><path clip-rule="evenodd" d="m1174.7 461.8-9.9 24.9c-4.3 10.8-16.6 16.1-27.5 11.8-8.6-3.4-13.7-11.9-13.3-20.6l1.2-26.8c.6-14.2 12.6-25.1 26.8-24.5s25.1 12.6 24.5 26.8c-.2 3-.8 5.9-1.8 8.4" fill="#feb991" fill-rule="evenodd"/><path clip-rule="evenodd" d="m1168.9 431.1c-13.5-9.7-32.2-6.6-41.9 6.9 3.7 15.9 24.6 16.9 36.4 16.9-.3 4.1-.3 15 9.4 17.3.1-.3.1-.6.1-.8.9 1 1.8 1.7 2.9 1.6 9.6-13.5 6.5-32.2-6.9-41.9" fill="#111" fill-rule="evenodd"/><path clip-rule="evenodd" d="m1168.3 465.8-1.3 9.1c-.3 2.2 1.6 4.1 3.8 3.8 4.8-.7 8.4-3.9 9-8.1.8-5.4-2-10.3-6.1-10.9s-5 3.4-5.4 6.1" fill="#feb991" fill-rule="evenodd"/><path clip-rule="evenodd" d="m1126.3 464c0 1.2 1 2.2 2.2 2.2s2.2-1 2.2-2.2-1-2.2-2.2-2.2c-1.2.1-2.2 1-2.2 2.2" fill="#111" fill-rule="evenodd"/><path clip-rule="evenodd" d="m1146.3 463.9c0 1.2 1 2.2 2.2 2.2s2.2-1 2.2-2.2-1-2.2-2.2-2.2-2.2 1-2.2 2.2" fill="#111" fill-rule="evenodd"/><path clip-rule="evenodd" d="m1130.8 459.3c-.8-.3-1.7-.5-2.6-.5-.5 0-.9 0-1.4.1-.4.1-.9.2-1.3.4-.2.1-.4 0-.5-.2-.1-.1-.1-.2 0-.4l.2-.3c.3-.7.8-1 1.3-1.2s1.1-.3 1.6-.3c.5-.1 1.1-.1 1.7 0 .6 0 1.1.2 1.6.4l.3.1c.5.2.8.8.5 1.4-.3.4-.9.7-1.4.5" fill-rule="evenodd"/><path clip-rule="evenodd" d="m1144.7 457.4c.8-.2 1.7-.4 2.5-.4s1.7 0 2.5.1c.8.2 1.7.3 2.5.6s1.5.8 2.1 1.7l.1.2c.1.2.1.5-.1.6-.1.1-.3.1-.5 0-.6-.4-1.3-.6-2.1-.8-.7-.2-1.5-.3-2.2-.3-1.5-.1-3 0-4.5.3-.6.1-1.1-.3-1.2-.8-.1-.6.2-1.1.9-1.2z" fill-rule="evenodd"/><path d="m1146.9 481c-6.6 3.8-12.1 3-14.8 2.2" fill="none" stroke="#000" stroke-linecap="round" stroke-linejoin="round"/><path d="m1140.1 475.3c-3.3 1-5.7.6-8 0" fill="none" stroke="#fb9b73" stroke-linecap="round"/><path clip-rule="evenodd" d="m1192.6 516.3c-8.9-4.1-19.5-.2-23.6 8.8l-23.8 51.8-57.1 6c-5.9.6-10.6 5.6-10.7 11.7-.1 6.6 5.2 12 11.8 12.1l67.4.9c5.2.1 10.3-2.7 12.9-7.6l31.4-59.1c.2-.3.3-.6.5-.9 4-9 .1-19.6-8.8-23.7" fill="#fff" fill-rule="evenodd"/><path clip-rule="evenodd" d="m1095.8 583.5s-8.3-5.7-8.8-6.1c-.9-.7-2-1.2-3.1-1.5l-17.2-4.8c-1.2-.3-2.3.7-2.1 1.8.1 2.2.9 4 3 5.4l7.6 4.9s-.6 3.6 8.1 9.1c9.4 5.8 18.7-4.6 12.5-8.8" fill="#feb991" fill-rule="evenodd"/><path clip-rule="evenodd" d="m1075.1 606.1h-45.5c-1 0-1.9-.8-2-1.8l-7.6-59.9c-.1-1 .6-1.8 1.5-1.8h45.5c1 0 1.9.8 2 1.8l7.6 59.9c.1 1-.6 1.8-1.5 1.8" fill="#bad0f7" fill-rule="evenodd"/><path clip-rule="evenodd" d="m1072.6 606.1h-45.5c-1 0-1.9-.8-2-1.8l-7.6-59.9c-.1-1 .6-1.8 1.5-1.8h45.5c1 0 1.9.8 2 1.8l7.6 59.9c.2 1-.5 1.8-1.5 1.8" fill="#d6e3f8" fill-rule="evenodd"/><path clip-rule="evenodd" d="m1090.4 581.2c-4.6-.9-19.1-2.2-19.1-2.2l-11.6-.1c-.5-.1-1 0-1.5.1-.1 0-.3 0-.4 0l-10.3 1.8c-1.6.5-2.7.7-2.7 2.3.1 1 1.2 3.2 4.5 3.4s10.6-.1 10.6-.1c.1 0 .2 0 .3-.1l3.3.4c0 .1-.1.3-.1.4-7.4 1.1-12.9 2.2-17 2.9-5.7 1-3.9 7.3.8 7h.5c-1.5 1.8-.3 4.9 2.8 5.1.7 0 1.6.1 2.6.2-1.6 1.5-.7 4 2.3 4.1 5.1.2 16.1.1 16.1.1 14.7 1.2 20.3-.7 23.1-1.4 8.1-2.6 9.6-21.3-4.2-23.9" fill="#feb991" fill-rule="evenodd"/><path d="m1050.9 595.5 14.4-1.9" fill="none" stroke="#fb9b73" stroke-linecap="round"/><path d="m1054.6 601.1 11.6-1.5" fill="none" stroke="#fb9b73" stroke-linecap="round"/><path clip-rule="evenodd" d="m1028.7 586.5-5.2 1.4c-2.1.5-4.1-1-4.1-3.1v-.4c0-1.8 1.5-3.3 3.3-3.3h5.3c1.5 0 3.8.1 3.8 1.6 0 2.7-1.9 3.5-3.1 3.8" fill="#feb991" fill-rule="evenodd"/><path clip-rule="evenodd" d="m1031.8 591.8c0-1.4-1.1-2.6-2.5-2.7l-6.6-.5c-2-.2-3.8 1.5-3.8 3.5 0 1.9 1.4 3.3 3.2 3.5-.9.6-1.4 1.5-1.4 2.5 0 1.3.8 2.3 2 2.9-.6.6-.9 1.3-.9 2.2v.1c.1 1.9 1.8 3.2 3.6 2.8l.6-.1c1.4-.3 2.3-1.5 2.3-2.9 0-.9-.4-1.7-1-2.2 1.3-.3 2.3-1.3 2.3-2.6v-.5c0-1.3-1.1-2.4-2.6-2.6l-.7-.1 3.2-.5c1.3-.3 2.3-1.4 2.3-2.8" fill="#feb991" fill-rule="evenodd"/><path d="m1123.6 623.2c24.4.2 22.5.5 22.5.5" fill="none" stroke="#1e2022" stroke-linecap="round" stroke-linejoin="round"/><path clip-rule="evenodd" d="m1059.7 617h-11.3l37.7 229.1h11.2z" fill="#bad0f7" fill-rule="evenodd"/><path clip-rule="evenodd" d="m1064.3 617h-10.7l37.7 229.1h9.9z" fill="#e8f0fc" fill-rule="evenodd"/><path clip-rule="evenodd" d="m1053.6 617 5.3 32.4 9.2-9.1-3.8-23.3z" fill="#d6e3f8" fill-rule="evenodd"/><path clip-rule="evenodd" d="m362.2 617-37.6 229.1h-11.2l37.6-229.1z" fill="#bad0f7" fill-rule="evenodd"/><path clip-rule="evenodd" d="m357.1 617-37.7 229.1h-9.9l36.9-229.1z" fill="#e7eaf3" fill-rule="evenodd"/><path clip-rule="evenodd" d="m350.2 617.9-5 30.8-8.7-8.7 3.6-22.1z" fill="#d6e3f8" fill-rule="evenodd"/><path clip-rule="evenodd" d="m307.7 617.3h793.5v-11.2h-793.5z" fill="#e7eaf3" fill-rule="evenodd"/></svg>