<svg enable-background="new 0 0 1267.1 1789.6" viewBox="0 0 1267.1 1789.6" xmlns="http://www.w3.org/2000/svg"><path d="m1079.6 611.7-100.3 38.8-146.6 56.7c-5.5-10.3-13.7-24.3-23.8-41-34.7-57.6-92.2-147.1-143.3-225.7-57.7-88.7-107.3-163.5-107.3-163.5l35.9-10.4 293.3-85.1z" fill="#e7eaf3"/><path d="m1081.6 604.7-100.3 38.8-146.6 56.7c-5.5-10.3-13.7-24.3-23.8-41-34.7-57.6-92.2-147.1-143.3-225.7-57.7-88.7-107.3-163.5-107.3-163.5l35.9-10.4 293.3-85.1z" fill="#fff"/><path d="m1081.6 604.7-100.3 38.8c-56 11.7-113.2 16.9-170.4 15.7-34.7-57.6-92.2-147.1-143.3-225.7l-71.3-173.9 293.3-85.1z" fill="#e7eaf3"/><path d="m1156.2 580.5s-155.8 92.2-388.5 71.4l-185.5-452.2 88.9-15.3 307.3-52.8 174.3 440.1z" fill="#377dff"/><path d="m1152.8 571.8c-36.7 1.8-79.1 1.6-121.9-3.5-46.2-5.4-92.7-16.6-132.6-37.2-33.3-17.2-61.8-35.8-86.7-58.2-64.6-58.1-104.6-141.3-140.5-288.5l307.3-52.8z" fill="#1e2022" opacity=".1"/><path d="m1267.1 546.5s-114.9 22.5-231.8 8.7c-46.2-5.5-92.7-16.6-132.6-37.2-33.3-17.2-61.8-35.8-86.7-58.2-80-72-122.2-182.2-165.8-404.9 0 0 191 46.1 379.7-54.9.1 0 63.8 397.3 237.2 546.5z" fill="#fff"/><path d="m1035.3 555.2c-46.2-5.5-92.7-16.6-132.6-37.2-33.3-17.2-61.8-35.8-86.7-58.2 68.1-5.5 77.9-42.8 77.9-42.8 50.5 80.1 141.4 138.2 141.4 138.2z" fill="#e7eaf3"/><path d="m749.1 136.6s102.6 11.7 198.6-42.3l6.6 21.1s-91.9 45.8-205.2 45.8z" fill="#377dff" opacity=".3"/><path d="m749.1 240.9s102-8.2 215.6-63.1l3.8 8.8s-41.8 52.6-219.4 66.3z" fill="#e7eaf3"/><path d="m761.2 281.6s102-8.2 215.5-63.1l3.8 8.8s-41.8 52.6-219.4 66.4v-12.1z" fill="#e7eaf3"/><path d="m772.2 325.5s102-8.2 215.5-63.1l3.8 8.8s-41.8 52.6-219.4 66.4v-12.1z" fill="#e7eaf3"/><path d="m785.4 363s102-8.2 215.5-63.1l3.8 8.8s-41.8 52.6-219.4 66.4v-12.1z" fill="#e7eaf3"/><path d="m797.5 403.8s102-8.2 215.6-63.1l3.8 8.8s-41.8 52.6-219.4 66.4z" fill="#e7eaf3"/><path d="m985.5 154.5h30.2v30.1h-30.2z" fill="#377dff" opacity=".3" transform="matrix(.9466 -.3223 .3223 .9466 -1.2584 331.509)"/><path d="m1001.8 196.9h30.2v30.1h-30.2z" fill="#377dff" opacity=".3" transform="matrix(.9466 -.3223 .3223 .9466 -14.0759 339.007)"/><path d="m1027.8 278.6h30.2v30.1h-30.2z" fill="#377dff" opacity=".3" transform="matrix(.9466 -.3223 .3223 .9466 -39.0161 351.7543)"/><path d="m1042.7 322.5h30.2v30.1h-30.2z" fill="#377dff" opacity=".3" transform="matrix(.9466 -.3223 .3223 .9466 -52.3504 358.9066)"/><path d="m1015 241.1h30.2v30.1h-30.2z" fill="#377dff" opacity=".3" transform="matrix(.9466 -.3223 .3223 .9466 -27.5847 345.6267)"/><path d="m1000.8 171.8-13.5-6.6c-.8-.4-1.1-1.4-.8-2.2l1.4-2.9c.4-.8 1.4-1.1 2.2-.8l9.1 4.4 9.5-19.5c.4-.8 1.4-1.1 2.2-.8l2.9 1.4c.8.4 1.1 1.4.8 2.2l-11.6 24c-.4.8-1.4 1.1-2.2.8z" fill="#00c9a7"/><path d="m1030.3 255.9-13.5-6.6c-.8-.4-1.1-1.4-.8-2.2l1.4-2.9c.4-.8 1.4-1.1 2.2-.8l9.1 4.4 9.5-19.5c.4-.8 1.4-1.1 2.2-.8l2.9 1.4c.8.4 1.2 1.4.8 2.2l-11.6 23.9c-.4 1-1.4 1.3-2.2.9z" fill="#00c9a7"/><path d="m1017.1 214.4-13.5-6.6c-.8-.4-1.1-1.4-.8-2.2l1.4-2.9c.4-.8 1.4-1.1 2.2-.8l9.1 4.4 9.5-19.5c.4-.8 1.4-1.1 2.2-.8l2.9 1.4c.8.4 1.1 1.4.8 2.2l-11.7 23.9c-.4 1-1.3 1.3-2.1.9z" fill="#00c9a7"/><path d="m1043.1 293.9-13.5-6.6c-.8-.4-1.1-1.4-.8-2.2l1.4-2.9c.4-.8 1.4-1.1 2.2-.8l9.1 4.4 9.5-19.5c.4-.8 1.4-1.1 2.2-.8l2.9 1.4c.8.4 1.1 1.4.8 2.2l-11.6 23.9c-.4 1-1.4 1.3-2.2.9z" fill="#00c9a7"/><path d="m83.6 1779c-2-2.4-3-5.6-2.6-8.8l37-302.7 3.1-25.1c.7-5.8 5.6-10.1 11.4-10.2l108.4-.7c6.4 0 11.6-5.3 11.5-11.7 0-.1 0-.2 0-.2v-1.1c-.2-6.4 4.8-11.8 11.2-12h.4 113.9c6.4 0 11.6 5.2 11.6 11.6 0 .5 0 1-.1 1.6-.8 6.3 3.6 12.2 10 13 .4.1.8.1 1.2.1l109.4 2.8c6.4.2 11.5 5.5 11.3 11.9 0 .6-.1 1.1-.2 1.7l-54.7 319.4-1 6c-.3 1.5-.8 3-1.7 4.3z" fill="#377dff" opacity=".3"/><path d="m294.1 1628.4-56.9 22c-31.8 6.6-64.2 9.6-96.7 8.9-19.7-32.6-52.3-83.4-81.3-128l-40.4-98.6 166.4-48.3z" fill="#e7eaf3"/><path d="m336.5 1614.7s-88.4 52.3-220.4 40.5l-105.2-256.6 50.4-8.7 174.3-29.9 98.9 249.6z" fill="#377dff"/><path d="m334.5 1609.7c-20.8 1-44.9.9-69.1-2-26.2-3.1-52.6-9.4-75.2-21.1-18.9-9.7-35.1-20.3-49.2-33-36.7-33-59.3-80.1-79.7-163.6l174.3-29.9z" opacity=".1"/><path d="m396.9 1612s-65.2 12.8-131.5 4.9c-26.2-3.1-52.6-9.4-75.2-21.1-18.9-9.7-35.1-20.3-49.2-33-45.4-40.8-69.3-103.4-94-229.7 0 0 108.3 26.1 215.4-31.1 0 0 36.1 225.3 134.5 310z" fill="#e7eaf3"/><path d="m400.2 1603.2s-65.2 12.8-131.5 4.9c-26.2-3.1-52.6-9.4-75.2-21.1-18.9-9.7-35.1-20.3-49.2-33-45.4-40.8-69.3-103.4-94-229.7 0 0 108.3 26.1 215.4-31.1 0 .1 36.1 225.4 134.5 310z" fill="#fff"/><path d="m267.9 1600.3c-26.2-3.1-52.6-9.4-75.2-21.1-18.9-9.7-35.1-20.3-49.2-33 38.6-3.1 44.2-24.2 44.2-24.2 28.6 45.4 80.2 78.3 80.2 78.3z" opacity=".1"/><g fill="#377dff"><path d="m105.5 1362.9s88.1-5 112.7-24l3.7 12s-58.2 25.7-116.4 26z" opacity=".3"/><path d="m105.5 1422.1s85.3-4.7 149.7-35.8l2.2 5s-51.1 29.8-151.9 37.7z" opacity=".3"/><path d="m112.4 1445.1s85.3-4.7 149.7-35.8l2.2 5s-51.1 29.8-151.9 37.7z" opacity=".3"/><path d="m119.3 1468.2s85.3-4.7 149.7-35.8l2.2 5s-51.1 29.8-151.9 37.7z" opacity=".3"/><path d="m126.1 1491.3s85.3-4.7 149.7-35.8l2.2 5s-51.1 29.8-151.9 37.7z" opacity=".3"/><path d="m133 1514.4s85.3-4.7 149.7-35.8l2.2 5s-51.1 29.8-151.9 37.7z" opacity=".3"/></g><path d="m463.7 1778.7c-1.6 1.3-3.5 2-5.5 2l-374.6-1.7c-2-2.4-3-5.6-2.6-8.8l37-302.7 23.2-.3c4 0 7.5 2.6 8.5 6.5l4.3 16c1.1 3.9 4.6 6.6 8.7 6.5l92.6-2.2c4.8-.1 8.6-4 8.6-8.8v-10.6c0-4.8 3.9-8.7 8.7-8.8l128.3-1.4c4.2 0 7.9 3 8.7 7.1l56.7 296.7.4 1.9c.7 3.3-.5 6.5-3 8.6z" fill="#e7eaf3"/><path d="m392.1 1473.4-128.3 1.4c-4.8.1-8.7 4-8.7 8.8v10.6c0 4.8-3.8 8.6-8.5 8.8l-92.6 2.2c-4 .1-7.6-2.6-8.7-6.5l-4.4-16c-1-3.9-4.6-6.5-8.6-6.5l-123.7 1.3c-4.8 0-8.7 4-8.7 8.8 0 .5 0 .9.1 1.4l49.8 292.8c.7 4.2 4.3 7.3 8.6 7.3l390.7 1.7c4.8 0 8.8-3.9 8.8-8.7 0-.6-.1-1.1-.2-1.7l-57.1-298.6c-.6-4.2-4.3-7.2-8.5-7.1z" fill="#e7eaf3"/><path d="m396.7 1468.7-128.3 1.4c-4.8.1-8.7 4-8.7 8.8v10.6c0 4.8-3.8 8.6-8.5 8.8l-92.6 2.2c-4 .1-7.6-2.6-8.7-6.5l-4.4-16c-1-3.9-4.6-6.5-8.6-6.5l-123.7 1.3c-4.8 0-8.7 4-8.7 8.8 0 .5 0 .9.1 1.4l49.8 292.8c.7 4.2 4.3 7.3 8.6 7.3l390.7 1.7c4.8 0 8.8-3.9 8.8-8.7 0-.6-.1-1.1-.2-1.7l-57.1-298.6c-.6-4.2-4.2-7.2-8.5-7.1z" fill="#fff"/></svg>