<svg enable-background="new 0 0 155 152.9" viewBox="0 0 155 152.9" xmlns="http://www.w3.org/2000/svg"><circle cx="77.5" cy="76.5" fill="#de4437" r="76.2"/><path d="m106.4 103.7c2.3 10.3-9 12.6-13.9 11.2-4.9-1.3-15-1.6-15-1.6s-10.1.2-15 1.6-16.2-.9-13.9-11.2c2.2-10.3 12.1-9.9 14.8-23.8s14.1-13 14.1-13 11.4-.9 14.1 13 12.6 13.4 14.8 23.8zm-18.5-37.8c6.1 1.8 12.8-3 15-10.7s-.9-15.3-7-17.1-12.8 3-15 10.7.9 15.4 7 17.1zm25.2-2.8c-5.9-2.4-13 1.7-16.1 9.1-3 7.4-.7 15.3 5.1 17.7 5.9 2.4 13-1.7 16.1-9.1s.7-15.3-5.1-17.7zm-46 2.8c6.1-1.8 9.2-9.4 7-17.1s-8.9-12.5-15-10.7-9.2 9.4-7 17.1 8.9 12.5 15 10.7zm-14.3 24c5.9-2.4 8.2-10.3 5.1-17.7s-10.2-11.4-16.1-9.1c-5.9 2.4-8.2 10.3-5.1 17.7s10.3 11.5 16.1 9.1z" fill="#fff"/></svg>